<svg width="9" height="13" viewBox="0 0 9 13" fill="none" xmlns="http://www.w3.org/2000/svg">
<path d="M8.03076 7.21484C8.16748 7.10547 8.24951 6.94141 8.24951 6.75C8.24951 6.58594 8.16748 6.42188 8.03076 6.28516L2.72607 0.980469C2.58936 0.871094 2.42529 0.789062 2.26123 0.789062C2.06982 0.789062 1.90576 0.871094 1.79639 0.980469L1.19482 1.58203C1.05811 1.71875 0.976074 1.88281 0.976074 2.04688C0.976074 2.23828 1.03076 2.40234 1.16748 2.51172L5.40576 6.75L1.16748 10.9883C1.03076 11.125 0.976074 11.2891 0.976074 11.4531C0.976074 11.6445 1.05811 11.8086 1.19482 11.918L1.79639 12.5195C1.90576 12.6562 2.06982 12.7109 2.26123 12.7109C2.42529 12.7109 2.58936 12.6562 2.72607 12.5195L8.03076 7.21484Z" fill="#009941"/>
</svg>
