<svg width="150" height="30" viewBox="0 0 150 30" fill="none" xmlns="http://www.w3.org/2000/svg">
<path d="M14.9999 21.5867L20.1874 24.7242C21.1374 25.2992 22.2999 24.4492 22.0499 23.3742L20.6749 17.4742L25.2624 13.4992C26.0999 12.7742 25.6499 11.3992 24.5499 11.3117L18.5124 10.7992L16.1499 5.22422C15.7249 4.21172 14.2749 4.21172 13.8499 5.22422L11.4874 10.7867L5.44991 11.2992C4.34991 11.3867 3.89991 12.7617 4.73741 13.4867L9.32491 17.4617L7.94991 23.3617C7.69991 24.4367 8.86241 25.2867 9.81241 24.7117L14.9999 21.5867Z" fill="#009941"/>
<path d="M74.9999 21.5867L80.1874 24.7242C81.1374 25.2992 82.2999 24.4492 82.0499 23.3742L80.6749 17.4742L85.2624 13.4992C86.0999 12.7742 85.6499 11.3992 84.5499 11.3117L78.5124 10.7992L76.1499 5.22422C75.7249 4.21172 74.2749 4.21172 73.8499 5.22422L71.4874 10.7867L65.4499 11.2992C64.3499 11.3867 63.8999 12.7617 64.7374 13.4867L69.3249 17.4617L67.9499 23.3617C67.6999 24.4367 68.8624 25.2867 69.8124 24.7117L74.9999 21.5867Z" fill="#009941"/>
<path d="M44.9999 21.5867L50.1874 24.7242C51.1374 25.2992 52.2999 24.4492 52.0499 23.3742L50.6749 17.4742L55.2624 13.4992C56.0999 12.7742 55.6499 11.3992 54.5499 11.3117L48.5124 10.7992L46.1499 5.22422C45.7249 4.21172 44.2749 4.21172 43.8499 5.22422L41.4874 10.7867L35.4499 11.2992C34.3499 11.3867 33.8999 12.7617 34.7374 13.4867L39.3249 17.4617L37.9499 23.3617C37.6999 24.4367 38.8624 25.2867 39.8124 24.7117L44.9999 21.5867Z" fill="#009941"/>
<path d="M105 21.5867L110.187 24.7242C111.137 25.2992 112.3 24.4492 112.05 23.3742L110.675 17.4742L115.262 13.4992C116.1 12.7742 115.65 11.3992 114.55 11.3117L108.512 10.7992L106.15 5.22422C105.725 4.21172 104.275 4.21172 103.85 5.22422L101.487 10.7867L95.4499 11.2992C94.3499 11.3867 93.8999 12.7617 94.7374 13.4867L99.3249 17.4617L97.9499 23.3617C97.6999 24.4367 98.8624 25.2867 99.8124 24.7117L105 21.5867Z" fill="#009941"/>
<path d="M135 21.5867L140.187 24.7242C141.137 25.2992 142.3 24.4492 142.05 23.3742L140.675 17.4742L145.262 13.4992C146.1 12.7742 145.65 11.3992 144.55 11.3117L138.512 10.7992L136.15 5.22422C135.725 4.21172 134.275 4.21172 133.85 5.22422L131.487 10.7867L125.45 11.2992C124.35 11.3867 123.9 12.7617 124.737 13.4867L129.325 17.4617L127.95 23.3617C127.7 24.4367 128.862 25.2867 129.812 24.7117L135 21.5867Z" fill="#009941"/>
</svg>
