<svg width="74" height="44" viewBox="0 0 74 44" fill="none" xmlns="http://www.w3.org/2000/svg">
<g clip-path="url(#clip0_85_275)">
<path d="M41.9357 43.6644C41.9357 42.6595 41.856 41.8176 41.9719 41.0047C42.0208 40.6589 42.4245 40.2877 42.7559 40.0795C44.3618 39.0602 46.1054 38.2454 47.6027 37.0758C52.4477 33.2881 55.3193 28.3019 55.4768 21.8238C55.5202 19.9861 54.8431 19.5244 53.3005 20.2432C48.8411 22.3108 44.045 21.0977 41.4867 17.2558C38.6966 13.0625 39.0895 7.4788 42.4336 3.81788C46.7029 -0.856956 53.7314 -0.998178 58.5782 3.47025C61.4806 6.14624 62.8602 9.60076 63.2042 13.5315C64.3575 26.6959 57.7544 37.5484 45.7342 42.3155C44.5447 42.7863 43.3262 43.1737 41.9357 43.6644Z" fill="#009941"/>
</g>
<g clip-path="url(#clip1_85_275)">
<path d="M12.9716 43.6644C12.9716 42.6595 12.8919 41.8176 13.0078 41.0047C13.0567 40.6589 13.4604 40.2877 13.7918 40.0795C15.3977 39.0602 17.1413 38.2454 18.6386 37.0758C23.4836 33.2881 26.3552 28.3019 26.5127 21.8238C26.5561 19.9861 25.879 19.5244 24.3364 20.2432C19.877 22.3108 15.0809 21.0977 12.5226 17.2558C9.73252 13.0625 10.1254 7.4788 13.4695 3.81788C17.7388 -0.856956 24.7673 -0.998178 29.6141 3.47025C32.5164 6.14624 33.8961 9.60076 34.2401 13.5315C35.3934 26.6959 28.7903 37.5484 16.7701 42.3155C15.5806 42.7863 14.3621 43.1737 12.9716 43.6644Z" fill="#009941"/>
</g>
<defs>
<clipPath id="clip0_85_275">
<rect width="43.4531" height="43.4531" fill="white" transform="translate(29.7574 0.210938)"/>
</clipPath>
<clipPath id="clip1_85_275">
<rect width="43.4531" height="43.4531" fill="white" transform="translate(0.789429 0.210938)"/>
</clipPath>
</defs>
</svg>
