<svg width="150" height="30" viewBox="0 0 150 30" fill="none" xmlns="http://www.w3.org/2000/svg">
<path d="M15.0009 21.5867L20.1884 24.7242C21.1384 25.2992 22.3009 24.4492 22.0509 23.3742L20.6759 17.4742L25.2634 13.4992C26.1009 12.7742 25.6509 11.3992 24.5509 11.3117L18.5134 10.7992L16.1509 5.22422C15.7259 4.21172 14.2759 4.21172 13.8509 5.22422L11.4884 10.7867L5.45088 11.2992C4.35088 11.3867 3.90088 12.7617 4.73838 13.4867L9.32588 17.4617L7.95088 23.3617C7.70088 24.4367 8.86338 25.2867 9.81338 24.7117L15.0009 21.5867Z" fill="#009941"/>
<path d="M75.0009 21.5867L80.1884 24.7242C81.1384 25.2992 82.3009 24.4492 82.0509 23.3742L80.6759 17.4742L85.2634 13.4992C86.1009 12.7742 85.6509 11.3992 84.5509 11.3117L78.5134 10.7992L76.1509 5.22422C75.7259 4.21172 74.2759 4.21172 73.8509 5.22422L71.4884 10.7867L65.4509 11.2992C64.3509 11.3867 63.9009 12.7617 64.7384 13.4867L69.3259 17.4617L67.9509 23.3617C67.7009 24.4367 68.8634 25.2867 69.8134 24.7117L75.0009 21.5867Z" fill="#009941"/>
<path d="M45.0009 21.5867L50.1884 24.7242C51.1384 25.2992 52.3009 24.4492 52.0509 23.3742L50.6759 17.4742L55.2634 13.4992C56.1009 12.7742 55.6509 11.3992 54.5509 11.3117L48.5134 10.7992L46.1509 5.22422C45.7259 4.21172 44.2759 4.21172 43.8509 5.22422L41.4884 10.7867L35.4509 11.2992C34.3509 11.3867 33.9009 12.7617 34.7384 13.4867L39.3259 17.4617L37.9509 23.3617C37.7009 24.4367 38.8634 25.2867 39.8134 24.7117L45.0009 21.5867Z" fill="#009941"/>
<path d="M105.001 21.5867L110.188 24.7242C111.138 25.2992 112.301 24.4492 112.051 23.3742L110.676 17.4742L115.263 13.4992C116.101 12.7742 115.651 11.3992 114.551 11.3117L108.513 10.7992L106.151 5.22422C105.726 4.21172 104.276 4.21172 103.851 5.22422L101.488 10.7867L95.4509 11.2992C94.3509 11.3867 93.9009 12.7617 94.7384 13.4867L99.3259 17.4617L97.9509 23.3617C97.7009 24.4367 98.8634 25.2867 99.8134 24.7117L105.001 21.5867Z" fill="#009941"/>
<path d="M135.001 21.5867L140.188 24.7242C141.138 25.2992 142.301 24.4492 142.051 23.3742L140.676 17.4742L145.263 13.4992C146.101 12.7742 145.651 11.3992 144.551 11.3117L138.513 10.7992L136.151 5.22422C135.726 4.21172 134.276 4.21172 133.851 5.22422L131.488 10.7867L125.451 11.2992C124.351 11.3867 123.901 12.7617 124.738 13.4867L129.326 17.4617L127.951 23.3617C127.701 24.4367 128.863 25.2867 129.813 24.7117L135.001 21.5867Z" fill="#009941"/>
</svg>
