<svg width="100" height="60" viewBox="0 0 100 60" fill="none" xmlns="http://www.w3.org/2000/svg">
<g clip-path="url(#clip0_71_289)">
<path d="M56.817 59.9997C56.817 58.6122 56.707 57.4497 56.867 56.3272C56.9345 55.8497 57.492 55.3372 57.9495 55.0497C60.167 53.6422 62.5745 52.5172 64.642 50.9022C71.3321 45.6722 75.297 38.7872 75.5145 29.8422C75.5745 27.3047 74.6395 26.6672 72.5095 27.6597C66.352 30.5147 59.7295 28.8397 56.197 23.5347C52.3445 17.7447 52.887 10.0347 57.5045 4.97971C63.3995 -1.47529 73.1045 -1.67029 79.797 4.49971C83.8045 8.19471 85.7095 12.9647 86.1846 18.3922C87.7771 36.5697 78.6595 51.5547 62.062 58.1372C60.4195 58.7872 58.737 59.3222 56.817 59.9997Z" fill="#009941"/>
</g>
<g clip-path="url(#clip1_71_289)">
<path d="M16.817 59.9997C16.817 58.6122 16.707 57.4497 16.867 56.3272C16.9345 55.8497 17.492 55.3372 17.9495 55.0497C20.167 53.6422 22.5745 52.5172 24.642 50.9022C31.3321 45.6722 35.297 38.7872 35.5145 29.8422C35.5745 27.3047 34.6395 26.6672 32.5095 27.6597C26.352 30.5147 19.7295 28.8397 16.197 23.5347C12.3445 17.7447 12.887 10.0347 17.5045 4.97971C23.3995 -1.47529 33.1045 -1.67029 39.797 4.49971C43.8045 8.19471 45.7095 12.9647 46.1846 18.3922C47.7771 36.5697 38.6595 51.5547 22.062 58.1372C20.4195 58.7872 18.737 59.3222 16.817 59.9997Z" fill="#009941"/>
</g>
<defs>
<clipPath id="clip0_71_289">
<rect width="60" height="60" fill="white" transform="translate(40)"/>
</clipPath>
<clipPath id="clip1_71_289">
<rect width="60" height="60" fill="white"/>
</clipPath>
</defs>
</svg>
