<svg width="136" height="28" viewBox="0 0 136 28" fill="none" xmlns="http://www.w3.org/2000/svg">
<path d="M13.7495 20.1832L18.4402 23.0202C19.2992 23.5401 20.3503 22.7715 20.1243 21.7995L18.881 16.4646L23.0291 12.8703C23.7864 12.2147 23.3795 10.9714 22.3848 10.8923L16.9256 10.4289L14.7894 5.38782C14.4051 4.47229 13.0939 4.47229 12.7097 5.38782L10.5734 10.4176L5.11418 10.881C4.11953 10.9601 3.71263 12.2034 4.46992 12.859L8.61804 16.4532L7.37473 21.7882C7.14868 22.7602 8.19984 23.5288 9.05885 23.0089L13.7495 20.1832Z" fill="#009941"/>
<path d="M68.0029 20.1832L72.6936 23.0202C73.5526 23.5401 74.6038 22.7715 74.3777 21.7995L73.1344 16.4646L77.2825 12.8703C78.0398 12.2147 77.6329 10.9714 76.6383 10.8923L71.179 10.4289L69.0428 5.38782C68.6585 4.47229 67.3474 4.47229 66.9631 5.38782L64.8268 10.4176L59.3676 10.881C58.3729 10.9601 57.966 12.2034 58.7233 12.859L62.8715 16.4532L61.6282 21.7882C61.4021 22.7602 62.4533 23.5288 63.3123 23.0089L68.0029 20.1832Z" fill="#009941"/>
<path d="M40.8723 20.1832L45.563 23.0202C46.422 23.5401 47.4731 22.7715 47.2471 21.7995L46.0038 16.4646L50.1519 12.8703C50.9092 12.2147 50.5023 10.9714 49.5076 10.8923L44.0484 10.4289L41.9122 5.38782C41.5279 4.47229 40.2167 4.47229 39.8325 5.38782L37.6962 10.4176L32.237 10.881C31.2423 10.9601 30.8354 12.2034 31.5927 12.859L35.7408 16.4532L34.4975 21.7882C34.2715 22.7602 35.3226 23.5288 36.1817 23.0089L40.8723 20.1832Z" fill="#009941"/>
<path d="M95.1257 20.1832L99.8164 23.0202C100.675 23.5401 101.727 22.7715 101.5 21.7995L100.257 16.4646L104.405 12.8703C105.163 12.2147 104.756 10.9714 103.761 10.8923L98.3018 10.4289L96.1656 5.38782C95.7813 4.47229 94.4702 4.47229 94.0859 5.38782L91.9496 10.4176L86.4904 10.881C85.4958 10.9601 85.0889 12.2034 85.8461 12.859L89.9943 16.4532L88.751 21.7882C88.5249 22.7602 89.5761 23.5288 90.4351 23.0089L95.1257 20.1832Z" fill="#009941"/>
<path d="M122.256 20.1832L126.947 23.0202C127.806 23.5401 128.857 22.7715 128.631 21.7995L127.388 16.4646L131.536 12.8703C132.293 12.2147 131.886 10.9714 130.892 10.8923L125.432 10.4289L123.296 5.38782C122.912 4.47229 121.601 4.47229 121.216 5.38782L119.08 10.4176L113.621 10.881C112.626 10.9601 112.219 12.2034 112.977 12.859L117.125 16.4532L115.882 21.7882C115.656 22.7602 116.707 23.5288 117.566 23.0089L122.256 20.1832Z" fill="#009941"/>
</svg>
