<svg width="60" height="60" viewBox="0 0 60 60" fill="none" xmlns="http://www.w3.org/2000/svg">
<path d="M10 25C10 15.5725 10 10.8575 12.93 7.93C15.86 5.0025 20.5725 5 30 5H33.75C43.1775 5 47.8925 5 50.82 7.93C53.7475 10.86 53.75 15.5725 53.75 25V35C53.75 44.4275 53.75 49.1425 50.82 52.07C47.89 54.9975 43.1775 55 33.75 55H30C20.5725 55 15.8575 55 12.93 52.07C10.0025 49.14 10 44.4275 10 35V25Z" stroke="white" stroke-width="4" stroke-linecap="round" stroke-linejoin="round"/>
<path d="M24.5 29.935C23.4325 28.075 22.9175 26.5575 22.6075 25.0175C22.1475 22.7425 23.2 20.5175 24.94 19.0975C25.6775 18.4975 26.52 18.7025 26.955 19.485L27.9375 21.2475C28.715 22.6425 29.105 23.3425 29.0275 24.0825C28.9525 24.8225 28.4275 25.425 27.3775 26.6325L24.5 29.935ZM24.5 29.935C26.7503 33.7909 29.9591 36.9997 33.815 39.25M33.815 39.25C35.675 40.3175 37.1925 40.8325 38.7325 41.1425C41.0075 41.6025 43.2325 40.55 44.6525 38.81C45.2525 38.0725 45.0475 37.23 44.265 36.795L42.505 35.8125C41.105 35.035 40.4075 34.645 39.6675 34.7225C38.9275 34.7975 38.325 35.3225 37.1175 36.3725L33.815 39.25ZM12.5 15H6.25M12.5 30H6.25M12.5 45H6.25" stroke="white" stroke-width="4" stroke-linecap="round" stroke-linejoin="round"/>
</svg>
