<svg width="75" height="71" viewBox="0 0 75 71" fill="none" xmlns="http://www.w3.org/2000/svg">
<rect x="0.46792" y="0.743799" width="73.9314" height="69.2029" rx="8.89048" stroke="#009941" stroke-width="0.93584"/>
<path d="M37.4291 18.3765C30.9437 18.3765 25.6819 23.3845 25.6819 29.5527C25.6819 36.65 33.5134 47.8971 36.389 51.7819C36.5084 51.9459 36.6648 52.0793 36.8456 52.1713C37.0264 52.2633 37.2263 52.3113 37.4291 52.3113C37.632 52.3113 37.8319 52.2633 38.0127 52.1713C38.1934 52.0793 38.3499 51.9459 38.4693 51.7819C41.3449 47.8988 49.1764 36.6557 49.1764 29.5527C49.1764 23.3845 43.9146 18.3765 37.4291 18.3765Z" stroke="#009941" stroke-width="2.6105" stroke-linecap="round" stroke-linejoin="round"/>
<path d="M37.4297 34.04C39.5923 34.04 41.3454 32.2869 41.3454 30.1242C41.3454 27.9616 39.5923 26.2085 37.4297 26.2085C35.2671 26.2085 33.5139 27.9616 33.5139 30.1242C33.5139 32.2869 35.2671 34.04 37.4297 34.04Z" stroke="#009941" stroke-width="2.6105" stroke-linecap="round" stroke-linejoin="round"/>
</svg>
