<svg width="80" height="75" viewBox="0 0 80 75" fill="none" xmlns="http://www.w3.org/2000/svg">
<rect x="0.5" y="0.5" width="79" height="73.9474" rx="9.5" stroke="#009941"/>
<path d="M39.9986 19.3416C33.0685 19.3416 27.4459 24.693 27.4459 31.284C27.4459 38.8679 35.8143 50.8861 38.8871 55.0372C39.0147 55.2125 39.1818 55.355 39.375 55.4534C39.5682 55.5517 39.7818 55.6029 39.9986 55.6029C40.2153 55.6029 40.429 55.5517 40.6221 55.4534C40.8153 55.355 40.9824 55.2125 41.11 55.0372C44.1828 50.8879 52.5512 38.874 52.5512 31.284C52.5512 24.693 46.9287 19.3416 39.9986 19.3416Z" stroke="#009941" stroke-width="2.78947" stroke-linecap="round" stroke-linejoin="round"/>
<path d="M39.9973 36.0791C42.3082 36.0791 44.1815 34.2058 44.1815 31.8949C44.1815 29.584 42.3082 27.7107 39.9973 27.7107C37.6864 27.7107 35.8131 29.584 35.8131 31.8949C35.8131 34.2058 37.6864 36.0791 39.9973 36.0791Z" stroke="#009941" stroke-width="2.78947" stroke-linecap="round" stroke-linejoin="round"/>
</svg>
