<svg width="75" height="71" viewBox="0 0 75 71" fill="none" xmlns="http://www.w3.org/2000/svg">
<rect x="0.465967" y="0.747705" width="73.9314" height="69.2029" rx="8.89048" stroke="#009941" stroke-width="0.93584"/>
<path d="M37.4272 18.3794C30.9417 18.3794 25.6799 23.3875 25.6799 29.5556C25.6799 36.6529 33.5114 47.9001 36.3871 51.7848C36.5064 51.9488 36.6629 52.0823 36.8436 52.1743C37.0244 52.2663 37.2244 52.3142 37.4272 52.3142C37.63 52.3142 37.83 52.2663 38.0107 52.1743C38.1915 52.0823 38.3479 51.9488 38.4673 51.7848C41.3429 47.9017 49.1744 36.6586 49.1744 29.5556C49.1744 23.3875 43.9126 18.3794 37.4272 18.3794Z" stroke="#009941" stroke-width="2.6105" stroke-linecap="round" stroke-linejoin="round"/>
<path d="M37.4277 34.0429C39.5903 34.0429 41.3435 32.2898 41.3435 30.1272C41.3435 27.9646 39.5903 26.2114 37.4277 26.2114C35.2651 26.2114 33.512 27.9646 33.512 30.1272C33.512 32.2898 35.2651 34.0429 37.4277 34.0429Z" stroke="#009941" stroke-width="2.6105" stroke-linecap="round" stroke-linejoin="round"/>
</svg>
