<svg width="80" height="76" viewBox="0 0 80 76" fill="none" xmlns="http://www.w3.org/2000/svg">
<rect x="0.5" y="1.40234" width="79" height="73.9474" rx="9.5" stroke="#009941"/>
<path d="M39.9987 20.2439C33.0686 20.2439 27.446 25.5953 27.446 32.1863C27.446 39.7702 35.8145 51.7885 38.8872 55.9396C39.0148 56.1148 39.182 56.2574 39.3751 56.3557C39.5683 56.454 39.7819 56.5053 39.9987 56.5053C40.2154 56.5053 40.4291 56.454 40.6222 56.3557C40.8154 56.2574 40.9826 56.1148 41.1101 55.9396C44.1829 51.7902 52.5513 39.7763 52.5513 32.1863C52.5513 25.5953 46.9288 20.2439 39.9987 20.2439Z" stroke="#009941" stroke-width="2.78947" stroke-linecap="round" stroke-linejoin="round"/>
<path d="M39.9974 36.9815C42.3083 36.9815 44.1817 35.1081 44.1817 32.7972C44.1817 30.4864 42.3083 28.613 39.9974 28.613C37.6866 28.613 35.8132 30.4864 35.8132 32.7972C35.8132 35.1081 37.6866 36.9815 39.9974 36.9815Z" stroke="#009941" stroke-width="2.78947" stroke-linecap="round" stroke-linejoin="round"/>
</svg>
