<svg width="8" height="13" viewBox="0 0 8 13" fill="none" xmlns="http://www.w3.org/2000/svg">
<path d="M0.921387 0.789062C0.976074 0.734375 1.03076 0.707031 1.14014 0.707031C1.22217 0.707031 1.3042 0.734375 1.38623 0.789062L7.10107 6.53125C7.15576 6.58594 7.21045 6.66797 7.21045 6.75C7.21045 6.85938 7.15576 6.91406 7.10107 6.96875L1.38623 12.7109C1.3042 12.7656 1.22217 12.793 1.14014 12.793C1.03076 12.793 0.976074 12.7656 0.921387 12.7109L0.374512 12.1641C0.29248 12.1094 0.265137 12.0547 0.265137 11.9453C0.265137 11.8633 0.29248 11.7812 0.374512 11.6992L5.32373 6.75L0.374512 1.80078C0.29248 1.74609 0.265137 1.66406 0.265137 1.55469C0.265137 1.47266 0.29248 1.39062 0.374512 1.33594L0.921387 0.789062Z" fill="white"/>
</svg>
