<svg width="60" height="60" viewBox="0 0 60 60" fill="none" xmlns="http://www.w3.org/2000/svg">
<path d="M15 55C12.9167 55 11.1458 54.2708 9.6875 52.8125C8.22917 51.3542 7.5 49.5833 7.5 47.5V40H15V5H52.5V47.5C52.5 49.5833 51.7708 51.3542 50.3125 52.8125C48.8542 54.2708 47.0833 55 45 55H15ZM45 50C45.7083 50 46.3025 49.76 46.7825 49.28C47.2625 48.8 47.5017 48.2067 47.5 47.5V10H20V40H42.5V47.5C42.5 48.2083 42.74 48.8025 43.22 49.2825C43.7 49.7625 44.2933 50.0017 45 50ZM22.5 22.5V17.5H45V22.5H22.5ZM22.5 30V25H45V30H22.5ZM15 50H37.5V45H12.5V47.5C12.5 48.2083 12.74 48.8025 13.22 49.2825C13.7 49.7625 14.2933 50.0017 15 50ZM15 50H12.5H37.5H15Z" fill="white"/>
</svg>
