<svg width="34" height="34" viewBox="0 0 34 34" fill="none" xmlns="http://www.w3.org/2000/svg">
<path d="M8.27422 30.3421C7.12491 30.3421 6.148 29.9399 5.34349 29.1354C4.53898 28.3308 4.13672 27.3539 4.13672 26.2046V22.0671H8.27422V2.75879H28.9617V26.2046C28.9617 27.3539 28.5595 28.3308 27.7549 29.1354C26.9504 29.9399 25.9735 30.3421 24.8242 30.3421H8.27422ZM24.8242 27.5838C25.215 27.5838 25.5428 27.4514 25.8076 27.1866C26.0724 26.9218 26.2043 26.5945 26.2034 26.2046V5.51712H11.0326V22.0671H23.4451V26.2046C23.4451 26.5954 23.5775 26.9232 23.8423 27.188C24.1071 27.4528 24.4344 27.5847 24.8242 27.5838ZM12.4117 12.413V9.65462H24.8242V12.413H12.4117ZM12.4117 16.5505V13.7921H24.8242V16.5505H12.4117ZM8.27422 27.5838H20.6867V24.8255H6.89505V26.2046C6.89505 26.5954 7.02745 26.9232 7.29225 27.188C7.55705 27.4528 7.88437 27.5847 8.27422 27.5838ZM8.27422 27.5838H6.89505H20.6867H8.27422Z" fill="white"/>
</svg>
