<svg width="20" height="20" viewBox="0 0 20 20" fill="none" xmlns="http://www.w3.org/2000/svg">
<path d="M2.15 17.85V17.5V16.5007V16.5H2.5L2.15 17.85ZM2.15 17.85H2.5M2.15 17.85H2.5M2.5 17.85H17.5H17.85M2.5 17.85H17.85M17.85 17.85V17.5M17.85 17.85V17.5M17.85 17.5V16.5C17.85 16.2096 17.7768 15.9378 17.6277 15.693C17.4825 15.4546 17.2871 15.2655 17.0444 15.1312L17.038 15.1277M17.85 17.5L17.038 15.1277M17.038 15.1277L17.0315 15.1245M17.038 15.1277L17.0315 15.1245M17.0315 15.1245C15.8847 14.5511 14.7248 14.12 13.5521 13.8326C12.3794 13.5451 11.1952 13.4009 10.0002 13.4H10M17.0315 15.1245L10 13.4M10 13.4C8.80486 13.4 7.62056 13.5443 6.4477 13.8326C5.2751 14.1209 4.11535 14.5519 2.96866 15.1244L2.96176 15.1278M10 13.4L2.96176 15.1278M2.96176 15.1278L2.95502 15.1315M2.96176 15.1278L2.95502 15.1315M2.95502 15.1315C2.71348 15.2657 2.51855 15.4545 2.3729 15.692L2.67125 15.875L2.95502 15.1315ZM10 2.15H10.0004C10.782 2.15095 11.4594 2.43318 12.0137 2.98751C12.5681 3.54186 12.85 4.21903 12.85 5M10 2.15L12.5 5M10 2.15C9.21883 2.15 8.5416 2.43248 7.9873 2.98772C7.43334 3.54263 7.15095 4.21947 7.15 4.99958V5C7.15 5.78115 7.43246 6.45869 7.98751 7.01374C8.54258 7.5688 9.21983 7.85095 10.0004 7.85M10 2.15V7.5M12.85 5H12.5M12.85 5C12.85 4.99986 12.85 4.99972 12.85 4.99958L12.5 5M12.85 5C12.8508 5.78184 12.5689 6.45956 12.0135 7.01395C11.4585 7.568 10.7812 7.8499 10.0004 7.85M12.5 5C12.5008 5.68833 12.2562 6.27708 11.7662 6.76625C11.2762 7.25542 10.6875 7.5 10 7.5M10.0004 7.85L10 7.5M10.0004 7.85C10.0003 7.85 10.0001 7.85 10 7.85V7.5M19.65 16.4996V16.5V19.65H0.35V16.5C0.35 15.8553 0.515135 15.2681 0.845609 14.7309C1.17776 14.1909 1.61445 13.7826 2.15897 13.4993C3.42745 12.8653 4.7143 12.391 6.01978 12.0752C7.32618 11.7592 8.65279 11.6008 10.0002 11.6C11.3474 11.6 12.6738 11.7584 13.98 12.0751C15.2857 12.3918 16.5727 12.8662 17.8413 13.4995C18.3865 13.7819 18.8234 14.1901 19.1555 14.7307C19.4861 15.2688 19.6508 15.8559 19.65 16.4996ZM10 9.65C8.71856 9.65 7.63029 9.19781 6.71624 8.28376C5.80218 7.36971 5.35 6.28144 5.35 5C5.35 3.71856 5.80218 2.63029 6.71624 1.71624C7.63029 0.802185 8.71856 0.35 10 0.35C11.2814 0.35 12.3697 0.802185 13.2838 1.71624C14.1978 2.63029 14.65 3.71856 14.65 5C14.65 6.28144 14.1978 7.36971 13.2838 8.28376C12.3697 9.19781 11.2814 9.65 10 9.65Z" fill="#888888" stroke="white" stroke-width="0.7"/>
</svg>
