<svg width="20" height="20" viewBox="0 0 20 20" fill="none" xmlns="http://www.w3.org/2000/svg">
<path d="M18.9746 13.2895L14.3813 11.2341C14.2032 11.157 14.0087 11.1256 13.8155 11.1426C13.6222 11.1596 13.4362 11.2244 13.2743 11.3314C13.2613 11.3396 13.249 11.3487 13.2373 11.3586L10.8249 13.415C10.7712 13.4478 10.7103 13.4668 10.6475 13.4703C10.5847 13.4739 10.522 13.4619 10.465 13.4355C8.88519 12.6728 7.24999 11.0503 6.48734 9.48899C6.46036 9.43237 6.44784 9.36995 6.4509 9.30731C6.45395 9.24467 6.47249 9.18376 6.50485 9.13004L8.5671 6.67772C8.57683 6.66605 8.58558 6.6534 8.59434 6.64076C8.70094 6.47909 8.76565 6.29343 8.78263 6.10052C8.79961 5.90762 8.76833 5.71351 8.69161 5.53571L6.63228 0.950133C6.53287 0.717884 6.36078 0.524156 6.14188 0.398041C5.92298 0.271926 5.66907 0.220232 5.41828 0.250721C4.19413 0.412121 3.0706 1.01362 2.25752 1.94287C1.44445 2.87211 0.997451 4.06556 1.00001 5.3003C1.00001 12.81 7.10893 18.9189 14.6186 18.9189C15.8534 18.9214 17.0468 18.4744 17.9761 17.6614C18.9053 16.8483 19.5068 15.7248 19.6682 14.5006C19.6985 14.251 19.6473 13.9982 19.5224 13.78C19.3974 13.5618 19.2053 13.3898 18.9746 13.2895ZM18.8988 14.4034C18.7614 15.4401 18.2512 16.3913 17.4634 17.0791C16.6757 17.7669 15.6644 18.1443 14.6186 18.1407C7.53889 18.1407 1.77822 12.38 1.77822 5.3003C1.7746 4.25453 2.15198 3.24325 2.83982 2.45552C3.52765 1.66778 4.47884 1.15754 5.51556 1.02017C5.53111 1.01921 5.5467 1.01921 5.56225 1.02017C5.63901 1.02083 5.71387 1.04417 5.77739 1.08727C5.84092 1.13037 5.89027 1.1913 5.91925 1.26239L7.97274 5.84796C7.9967 5.90401 8.00716 5.96489 8.00328 6.02572C7.99939 6.08655 7.98127 6.14561 7.95037 6.19815L5.8891 8.6495C5.87937 8.66214 5.86964 8.67382 5.86089 8.68744C5.75107 8.85537 5.68639 9.04877 5.6731 9.24898C5.65981 9.44919 5.69836 9.64945 5.78501 9.83042C6.63034 11.561 8.37352 13.2915 10.1235 14.1368C10.3057 14.2229 10.5071 14.2604 10.7081 14.2455C10.9091 14.2307 11.1028 14.1641 11.2704 14.0522L11.3064 14.0249L13.7217 11.9705C13.7734 11.9389 13.8318 11.9201 13.8922 11.9155C13.9526 11.9109 14.0132 11.9208 14.069 11.9442L18.6614 14.0026C18.7389 14.0348 18.8039 14.0913 18.8467 14.1635C18.8895 14.2358 18.9077 14.3199 18.8988 14.4034Z" fill="#888888" stroke="#888888" stroke-width="0.355759"/>
</svg>
