<svg width="21" height="16" viewBox="0 0 21 16" fill="none" xmlns="http://www.w3.org/2000/svg">
<path d="M0.998047 3.24609C0.998047 2.71566 1.22047 2.20695 1.61638 1.83188C2.01229 1.45681 2.54926 1.24609 3.10916 1.24609H17.8869C18.4468 1.24609 18.9838 1.45681 19.3797 1.83188C19.7756 2.20695 19.998 2.71566 19.998 3.24609M0.998047 3.24609V13.2461C0.998047 13.7765 1.22047 14.2852 1.61638 14.6603C2.01229 15.0354 2.54926 15.2461 3.10916 15.2461H17.8869C18.4468 15.2461 18.9838 15.0354 19.3797 14.6603C19.7756 14.2852 19.998 13.7765 19.998 13.2461V3.24609M0.998047 3.24609L10.498 9.24609L19.998 3.24609" stroke="#888888" stroke-width="1.3341" stroke-linecap="round" stroke-linejoin="round"/>
</svg>
