<svg width="24" height="24" viewBox="0 0 24 24" fill="none" xmlns="http://www.w3.org/2000/svg">
<path d="M1.68492 6.40613C2.66732 4.48903 4.17439 2.87744 6.0377 1.75149C7.90101 0.625539 10.0471 0.0295982 12.2362 0.030274C15.4183 0.030274 18.0915 1.177 20.1354 3.04463L16.7502 6.36332C15.5258 5.21659 13.9695 4.63223 12.2362 4.63223C9.1603 4.63223 6.55672 6.6688 5.62983 9.40313C5.39368 10.0974 5.25907 10.838 5.25907 11.6017C5.25907 12.3654 5.39368 13.106 5.62983 13.8003C6.55791 16.5358 9.1603 18.5712 12.2362 18.5712C13.8243 18.5712 15.1763 18.1604 16.2342 17.4661C16.8475 17.0704 17.3726 16.5569 17.7777 15.9566C18.1828 15.3564 18.4595 14.6818 18.591 13.9738H12.2362V9.49802H23.3565C23.4959 10.2548 23.5714 11.044 23.5714 11.8644C23.5714 15.389 22.2844 18.3559 20.0504 20.3694C18.0975 22.1375 15.4242 23.1731 12.2362 23.1731C10.6854 23.1737 9.14971 22.8749 7.71687 22.2935C6.28403 21.7122 4.98212 20.8599 3.88557 19.7853C2.78901 18.7107 1.91929 17.4348 1.32612 16.0306C0.732958 14.6264 0.427969 13.1215 0.42859 11.6017C0.42859 9.73407 0.884362 7.96827 1.68492 6.40613Z" fill="white"/>
</svg>
