<svg width="12" height="21" viewBox="0 0 12 21" fill="none" xmlns="http://www.w3.org/2000/svg">
<path d="M7.73763 11.562H7.29963V12V20.062H3.98516V12V11.562H3.54715H0.8423V8.438H3.54715H3.98516V8V5.2C3.98516 3.78002 4.4532 2.7293 5.20975 2.03066C5.97132 1.32738 7.07202 0.938003 8.41125 0.938003C9.43522 0.938003 10.4146 0.993592 10.9663 1.03794V3.562H9.83287C8.73868 3.562 8.02852 3.81285 7.64163 4.36126C7.45624 4.62405 7.37481 4.91701 7.33653 5.19273C7.2996 5.45871 7.29961 5.73809 7.29963 5.98535L7.29963 6V8V8.438H7.73763H10.8368L10.0186 11.562H7.73763Z" fill="#009941" stroke="#009941" stroke-width="0.876006"/>
</svg>
