<svg width="18" height="18" viewBox="0 0 18 18" fill="none" xmlns="http://www.w3.org/2000/svg">
<path d="M9 1.935H9.00038C9.70376 1.93585 10.3135 2.18986 10.8124 2.68876C11.3112 3.18758 11.5649 3.7969 11.565 4.49962C11.565 4.49975 11.565 4.49987 11.565 4.5H11.25C11.2507 5.1195 11.0306 5.64937 10.5896 6.08963C10.1486 6.52988 9.61875 6.75 9 6.75V1.935ZM9 1.935C8.29695 1.935 7.68744 2.18923 7.18857 2.68895C6.69001 3.18836 6.43585 3.79752 6.435 4.49962V4.5C6.435 5.20304 6.68922 5.81282 7.18876 6.31236C7.68823 6.81183 8.29763 7.06576 9 7.065V1.935ZM17.685 14.8496V14.85C17.685 16.4157 16.4157 17.685 14.85 17.685H3.15C1.58427 17.685 0.315 16.4157 0.315 14.85C0.315 14.2697 0.463621 13.7413 0.761048 13.2578C1.05999 12.7719 1.45301 12.4044 1.94307 12.1494C3.0847 11.5788 4.24287 11.1519 5.4178 10.8677C6.59356 10.5833 7.78752 10.4407 9.00019 10.44C10.2127 10.44 11.4064 10.5825 12.582 10.8676C13.7571 11.1526 14.9155 11.5796 16.0572 12.1496C16.5478 12.4037 16.9411 12.7711 17.24 13.2576C17.5375 13.7419 17.6857 14.2703 17.685 14.8496ZM15.34 13.6181L15.3401 13.6179L15.3284 13.612C14.2963 13.0959 13.2524 12.708 12.1969 12.4493C11.1414 12.1906 10.0757 12.0608 9.00022 12.06H9C7.92437 12.06 6.85851 12.1899 5.80293 12.4494C4.74759 12.7088 3.70381 13.0967 2.67179 13.6119L2.67166 13.6116L2.65952 13.6184C2.44213 13.7392 2.2667 13.9091 2.13561 14.1228C2.00019 14.3436 1.93405 14.5889 1.935 14.8511L2.25 14.85H1.935C1.935 15.521 2.47897 16.065 3.15 16.065H14.85C15.521 16.065 16.065 15.521 16.065 14.85C16.065 14.5886 15.9991 14.344 15.8649 14.1237C15.7343 13.9091 15.5584 13.7389 15.34 13.6181ZM9 8.685C7.84671 8.685 6.86726 8.27803 6.04461 7.45539C5.22197 6.63274 4.815 5.65329 4.815 4.5C4.815 3.34671 5.22197 2.36726 6.04461 1.54461C6.86726 0.721966 7.84671 0.315 9 0.315C10.1533 0.315 11.1327 0.721966 11.9554 1.54461C12.778 2.36726 13.185 3.34671 13.185 4.5C13.185 5.65329 12.778 6.63274 11.9554 7.45539C11.1327 8.27803 10.1533 8.685 9 8.685Z" fill="#888888" stroke="white" stroke-width="0.63"/>
</svg>
