<svg width="35" height="36" viewBox="0 0 35 36" fill="none" xmlns="http://www.w3.org/2000/svg">
<path d="M20.6714 3.34114C20.7181 3.16664 20.7987 3.00304 20.9086 2.8597C21.0185 2.71636 21.1556 2.59608 21.312 2.50574C21.4685 2.4154 21.6412 2.35676 21.8203 2.33318C21.9993 2.30961 22.1813 2.32155 22.3558 2.36832C24.9048 3.03339 27.2305 4.36593 29.0932 6.2287C30.956 8.09147 32.2885 10.4171 32.9536 12.9661C33.0004 13.1406 33.0123 13.3226 32.9888 13.5017C32.9652 13.6808 32.9065 13.8535 32.8162 14.0099C32.7259 14.1663 32.6056 14.3034 32.4622 14.4133C32.3189 14.5232 32.1553 14.6038 31.9808 14.6505C31.8647 14.6811 31.7451 14.6967 31.625 14.6969C31.322 14.6969 31.0275 14.5968 30.7872 14.4122C30.547 14.2276 30.3744 13.9688 30.2964 13.676C29.754 11.5951 28.6665 9.69657 27.1459 8.17602C25.6254 6.65547 23.7268 5.56793 21.646 5.02551C21.4713 4.97902 21.3075 4.89855 21.164 4.78871C21.0205 4.67887 20.9 4.54181 20.8095 4.38537C20.719 4.22893 20.6602 4.05618 20.6365 3.877C20.6128 3.69782 20.6247 3.51572 20.6714 3.34114ZM20.271 10.5255C22.6411 11.158 24.1639 12.6808 24.7964 15.051C24.8744 15.3438 25.047 15.6026 25.2872 15.7872C25.5275 15.9718 25.822 16.0719 26.125 16.0719C26.2451 16.0717 26.3647 16.0561 26.4808 16.0255C26.6553 15.9788 26.8189 15.8982 26.9622 15.7883C27.1056 15.6784 27.2259 15.5413 27.3162 15.3849C27.4065 15.2285 27.4652 15.0558 27.4887 14.8767C27.5123 14.6976 27.5004 14.5156 27.4536 14.3411C26.5736 11.048 24.2739 8.74832 20.9808 7.86832C20.6284 7.77419 20.2531 7.82389 19.9374 8.00649C19.6217 8.18909 19.3914 8.48963 19.2973 8.842C19.2031 9.19436 19.2529 9.56969 19.4354 9.88541C19.618 10.2011 19.9186 10.4314 20.271 10.5255ZM34.3544 26.9138C34.0479 29.2428 32.9042 31.3805 31.1367 32.9278C29.3693 34.4751 27.099 35.3261 24.75 35.3219C11.1031 35.3219 1.55524e-05 24.2188 1.55524e-05 10.5719C-0.00419535 8.22289 0.846822 5.95264 2.39412 4.18521C3.94142 2.41777 6.07918 1.27401 8.40814 0.967543C8.99708 0.895632 9.59347 1.01612 10.1083 1.31102C10.6231 1.60591 11.0288 2.0594 11.2647 2.60379L14.8947 10.7077V10.7283C15.0753 11.145 15.1499 11.6 15.1118 12.0526C15.0737 12.5052 14.9241 12.9413 14.6764 13.3219C14.6455 13.3683 14.6128 13.4113 14.5785 13.4543L11 17.6961C12.2874 20.3121 15.0236 23.0243 17.6739 24.315L21.8574 20.7555C21.8984 20.7209 21.9415 20.6888 21.9863 20.6593C22.3666 20.4056 22.8042 20.2507 23.2595 20.2087C23.7147 20.1667 24.1733 20.2388 24.5936 20.4186L24.616 20.429L32.713 24.0572C33.2583 24.2923 33.7129 24.6976 34.0088 25.2125C34.3047 25.7274 34.4259 26.3243 34.3544 26.9138ZM31.625 26.57H31.6061L23.528 22.9521L19.3428 26.5116C19.3023 26.5461 19.2599 26.5783 19.2156 26.6079C18.8199 26.8719 18.3625 27.0287 17.888 27.063C17.4135 27.0974 16.9382 27.0081 16.5086 26.8038C13.2894 25.2483 10.0805 22.0635 8.5233 18.8786C8.3171 18.4521 8.22457 17.9796 8.25468 17.5068C8.28479 17.0341 8.43653 16.5771 8.69517 16.1802C8.72425 16.1335 8.75701 16.0893 8.79314 16.0479L12.375 11.8008L8.76564 3.7227C8.76495 3.71584 8.76495 3.70893 8.76564 3.70207C7.09889 3.91949 5.56856 4.73704 4.46122 6.00162C3.35389 7.26619 2.74551 8.89105 2.75002 10.5719C2.75638 16.4047 5.07628 21.9968 9.2007 26.1212C13.3251 30.2457 18.9172 32.5655 24.75 32.5719C26.4298 32.5777 28.0543 31.9714 29.3196 30.8665C30.5849 29.7616 31.4044 28.2336 31.625 26.5683V26.57Z" fill="#009941"/>
</svg>
