<svg width="24" height="24" viewBox="0 0 24 24" fill="none" xmlns="http://www.w3.org/2000/svg">
<path d="M1.68504 6.40564C2.66744 4.48854 4.17452 2.87695 6.03782 1.751C7.90113 0.62505 10.0472 0.0291099 12.2363 0.0297857C15.4184 0.0297857 18.0917 1.17651 20.1356 3.04414L16.7503 6.36283C15.5259 5.2161 13.9696 4.63174 12.2363 4.63174C9.16042 4.63174 6.55685 6.66832 5.62995 9.40264C5.3938 10.0969 5.25919 10.8375 5.25919 11.6012C5.25919 12.3649 5.3938 13.1055 5.62995 13.7998C6.55803 16.5353 9.16042 18.5707 12.2363 18.5707C13.8244 18.5707 15.1764 18.1599 16.2343 17.4656C16.8477 17.0699 17.3727 16.5564 17.7778 15.9561C18.1829 15.3559 18.4596 14.6814 18.5911 13.9734H12.2363V9.49753H23.3567C23.496 10.2543 23.5716 11.0435 23.5716 11.8639C23.5716 15.3885 22.2845 18.3555 20.0505 20.3689C18.0976 22.137 15.4243 23.1726 12.2363 23.1726C10.6855 23.1733 9.14983 22.8744 7.71699 22.2931C6.28415 21.7118 4.98225 20.8594 3.88569 19.7848C2.78913 18.7102 1.91941 17.4343 1.32625 16.0301C0.73308 14.6259 0.428091 13.121 0.428712 11.6012C0.428712 9.73359 0.884484 7.96779 1.68504 6.40564Z" fill="white"/>
</svg>
