<svg width="23" height="23" viewBox="0 0 23 23" fill="none" xmlns="http://www.w3.org/2000/svg">
<path d="M21.2106 15.5727L16.0458 13.2616C15.8456 13.175 15.627 13.1396 15.4096 13.1587C15.1923 13.1778 14.9832 13.2507 14.8011 13.371C14.7866 13.3802 14.7727 13.3904 14.7596 13.4016L12.047 15.7138C11.9867 15.7506 11.9182 15.772 11.8476 15.776C11.777 15.78 11.7065 15.7665 11.6423 15.7368C9.86607 14.8793 8.02745 13.0549 7.16994 11.2994C7.13961 11.2357 7.12553 11.1656 7.12896 11.0951C7.1324 11.0247 7.15324 10.9562 7.18963 10.8958L9.50841 8.13843C9.51935 8.1253 9.52919 8.11108 9.53904 8.09686C9.6589 7.91508 9.73166 7.70634 9.75075 7.48943C9.76985 7.27252 9.73468 7.05428 9.64841 6.85435L7.33291 1.69835C7.22113 1.43721 7.02764 1.21939 6.78151 1.07758C6.53537 0.935782 6.24988 0.877657 5.96789 0.911939C4.59147 1.09342 3.32817 1.76974 2.41395 2.81458C1.49974 3.85942 0.997134 5.20133 1.00001 6.58966C1.00001 15.0335 7.86886 21.9023 16.3127 21.9023C17.7011 21.9052 19.043 21.4026 20.0878 20.4884C21.1327 19.5742 21.809 18.3109 21.9905 16.9345C22.0245 16.6538 21.967 16.3696 21.8264 16.1242C21.6859 15.8789 21.4699 15.6854 21.2106 15.5727ZM21.1253 16.8251C20.9708 17.9908 20.3971 19.0603 19.5114 19.8337C18.6257 20.6071 17.4886 21.0314 16.3127 21.0273C8.3523 21.0273 1.87502 14.5501 1.87502 6.58966C1.87095 5.41381 2.29528 4.27672 3.06868 3.391C3.84208 2.50528 4.91159 1.93156 6.07727 1.7771C6.09475 1.77602 6.11229 1.77602 6.12977 1.7771C6.21608 1.77784 6.30025 1.80409 6.37168 1.85255C6.4431 1.90101 6.4986 1.96952 6.53118 2.04945L8.84012 7.20545C8.86706 7.26846 8.87882 7.33693 8.87445 7.40532C8.87008 7.47372 8.8497 7.54013 8.81496 7.5992L6.49728 10.3555C6.48634 10.3697 6.4754 10.3828 6.46556 10.3981C6.34208 10.587 6.26936 10.8044 6.25442 11.0295C6.23947 11.2547 6.28281 11.4798 6.38024 11.6833C7.33072 13.6291 9.29075 15.5749 11.2584 16.5254C11.4633 16.6222 11.6898 16.6643 11.9157 16.6476C12.1417 16.631 12.3595 16.5561 12.548 16.4302L12.5885 16.3996L15.3043 14.0896C15.3624 14.0541 15.4281 14.0329 15.4959 14.0278C15.5638 14.0226 15.632 14.0337 15.6947 14.0601L20.8584 16.3745C20.9456 16.4107 21.0186 16.4742 21.0667 16.5554C21.1148 16.6366 21.1354 16.7312 21.1253 16.8251Z" fill="#888888" stroke="#888888" stroke-width="0.4"/>
</svg>
