<svg width="35" height="36" viewBox="0 0 35 36" fill="none" xmlns="http://www.w3.org/2000/svg">
<path d="M20.6714 3.24348C20.7181 3.06898 20.7987 2.90538 20.9086 2.76204C21.0185 2.6187 21.1556 2.49842 21.312 2.40808C21.4685 2.31774 21.6412 2.25911 21.8203 2.23553C21.9993 2.21195 22.1813 2.22389 22.3558 2.27067C24.9048 2.93574 27.2305 4.26828 29.0932 6.13104C30.956 7.99381 32.2885 10.3195 32.9536 12.8685C33.0004 13.043 33.0123 13.2249 32.9888 13.404C32.9652 13.5831 32.9065 13.7558 32.8162 13.9122C32.7259 14.0687 32.6056 14.2057 32.4622 14.3157C32.3189 14.4256 32.1553 14.5062 31.9808 14.5529C31.8647 14.5834 31.7451 14.599 31.625 14.5993C31.322 14.5993 31.0275 14.4992 30.7872 14.3145C30.547 14.1299 30.3744 13.8711 30.2964 13.5783C29.754 11.4975 28.6665 9.59892 27.1459 8.07836C25.6254 6.55781 23.7268 5.47027 21.646 4.92786C21.4713 4.88137 21.3075 4.8009 21.164 4.69106C21.0205 4.58121 20.9 4.44415 20.8095 4.28771C20.719 4.13127 20.6602 3.95852 20.6365 3.77934C20.6128 3.60016 20.6247 3.41807 20.6714 3.24348ZM20.271 10.4279C22.6411 11.0604 24.1639 12.5832 24.7964 14.9533C24.8744 15.2461 25.047 15.5049 25.2872 15.6895C25.5275 15.8742 25.822 15.9743 26.125 15.9743C26.2451 15.974 26.3647 15.9584 26.4808 15.9279C26.6553 15.8812 26.8189 15.8006 26.9622 15.6907C27.1056 15.5807 27.2259 15.4437 27.3162 15.2872C27.4065 15.1308 27.4652 14.9581 27.4887 14.779C27.5123 14.5999 27.5004 14.418 27.4536 14.2435C26.5736 10.9504 24.2739 8.65067 20.9808 7.77067C20.6284 7.67654 20.2531 7.72624 19.9374 7.90884C19.6217 8.09144 19.3914 8.39197 19.2973 8.74434C19.2031 9.0967 19.2529 9.47203 19.4354 9.78775C19.618 10.1035 19.9186 10.3337 20.271 10.4279ZM34.3544 26.8161C34.0479 29.1451 32.9042 31.2829 31.1367 32.8302C29.3693 34.3775 27.099 35.2285 24.75 35.2243C11.1031 35.2243 1.55524e-05 24.1211 1.55524e-05 10.4743C-0.00419535 8.12523 0.846822 5.85499 2.39412 4.08755C3.94142 2.32011 6.07918 1.17635 8.40814 0.869887C8.99708 0.797976 9.59347 0.918462 10.1083 1.21336C10.6231 1.50826 11.0288 1.96175 11.2647 2.50614L14.8947 10.61V10.6307C15.0753 11.0474 15.1499 11.5023 15.1118 11.9549C15.0737 12.4075 14.9241 12.8436 14.6764 13.2243C14.6455 13.2707 14.6128 13.3136 14.5785 13.3566L11 17.5985C12.2874 20.2144 15.0236 22.9266 17.6739 24.2174L21.8574 20.6579C21.8984 20.6233 21.9415 20.5911 21.9863 20.5616C22.3666 20.3079 22.8042 20.1531 23.2595 20.1111C23.7147 20.069 24.1733 20.1412 24.5936 20.321L24.616 20.3313L32.713 23.9596C33.2583 24.1947 33.7129 24.5999 34.0088 25.1148C34.3047 25.6298 34.4259 26.2266 34.3544 26.8161ZM31.625 26.4724H31.6061L23.528 22.8544L19.3428 26.4139C19.3023 26.4485 19.2599 26.4806 19.2156 26.5102C18.8199 26.7742 18.3625 26.9311 17.888 26.9654C17.4135 26.9997 16.9382 26.9104 16.5086 26.7061C13.2894 25.1507 10.0805 21.9658 8.5233 18.781C8.3171 18.3545 8.22457 17.8819 8.25468 17.4092C8.28479 16.9364 8.43653 16.4794 8.69517 16.0825C8.72425 16.0359 8.75701 15.9916 8.79314 15.9502L12.375 11.7032L8.76564 3.62504C8.76495 3.61819 8.76495 3.61128 8.76564 3.60442C7.09889 3.82184 5.56856 4.63939 4.46122 5.90396C3.35389 7.16853 2.74551 8.7934 2.75002 10.4743C2.75638 16.3071 5.07628 21.8992 9.2007 26.0236C13.3251 30.148 18.9172 32.4679 24.75 32.4743C26.4298 32.48 28.0543 31.8738 29.3196 30.7688C30.5849 29.6639 31.4044 28.136 31.625 26.4707V26.4724Z" fill="#009941"/>
</svg>
