<svg width="12" height="21" viewBox="0 0 12 21" fill="none" xmlns="http://www.w3.org/2000/svg">
<path d="M7.73665 11.4643H7.29865V11.9023V19.9643H3.98418V11.9023V11.4643H3.54618H0.841324V8.34035H3.54618H3.98418V7.90234V5.10234C3.98418 3.68236 4.45223 2.63164 5.20877 1.933C5.97035 1.22972 7.07105 0.840347 8.41027 0.840347C9.43424 0.840347 10.4136 0.895936 10.9653 0.940289V3.46434H9.83189C8.7377 3.46434 8.02754 3.71519 7.64065 4.2636C7.45526 4.5264 7.37383 4.81936 7.33555 5.09507C7.29862 5.36106 7.29864 5.64043 7.29865 5.88769L7.29865 5.90234V7.90234V8.34035H7.73665H10.8358L10.0176 11.4643H7.73665Z" fill="#009941" stroke="#009941" stroke-width="0.876006"/>
</svg>
