<svg width="33" height="34" viewBox="0 0 33 34" fill="none" xmlns="http://www.w3.org/2000/svg">
<path d="M19.8676 3.11382C19.9113 2.95051 19.9867 2.79741 20.0896 2.66327C20.1924 2.52912 20.3207 2.41656 20.4671 2.33202C20.6135 2.24747 20.7751 2.1926 20.9427 2.17053C21.1103 2.14847 21.2806 2.15964 21.4439 2.20342C23.8294 2.82582 26.0058 4.07286 27.7491 5.81611C29.4923 7.55936 30.7394 9.7358 31.3618 12.1213C31.4055 12.2846 31.4167 12.4549 31.3946 12.6225C31.3726 12.7901 31.3177 12.9517 31.2332 13.0981C31.1486 13.2444 31.0361 13.3727 30.9019 13.4756C30.7678 13.5785 30.6147 13.6539 30.4514 13.6976C30.3427 13.7262 30.2308 13.7408 30.1184 13.741C29.8349 13.741 29.5592 13.6473 29.3344 13.4746C29.1096 13.3018 28.9481 13.0596 28.8751 12.7856C28.3674 10.8382 27.3497 9.06149 25.9267 7.63849C24.5037 6.2155 22.727 5.19774 20.7796 4.69012C20.6162 4.64661 20.4629 4.57131 20.3286 4.46851C20.1942 4.36572 20.0815 4.23745 19.9968 4.09105C19.9121 3.94464 19.8571 3.78298 19.8349 3.61529C19.8127 3.44761 19.8239 3.2772 19.8676 3.11382ZM19.4928 9.83724C21.7109 10.4292 23.136 11.8543 23.7279 14.0724C23.801 14.3464 23.9624 14.5886 24.1873 14.7613C24.4121 14.9341 24.6877 15.0278 24.9713 15.0278C25.0837 15.0276 25.1956 15.013 25.3042 14.9844C25.4676 14.9407 25.6206 14.8653 25.7548 14.7624C25.8889 14.6595 26.0015 14.5312 26.086 14.3848C26.1706 14.2385 26.2255 14.0768 26.2475 13.9092C26.2696 13.7416 26.2584 13.5713 26.2146 13.4081C25.3911 10.3262 23.239 8.17408 20.1571 7.35054C19.8274 7.26245 19.4761 7.30896 19.1807 7.47984C18.8852 7.65073 18.6697 7.93198 18.5816 8.26174C18.4935 8.5915 18.54 8.94274 18.7109 9.23821C18.8818 9.53367 19.1631 9.74915 19.4928 9.83724ZM32.6727 25.174C32.3859 27.3536 31.3155 29.3542 29.6614 30.8022C28.0074 32.2502 25.8828 33.0466 23.6845 33.0427C10.9132 33.0427 0.522475 22.652 0.522475 9.88067C0.518535 7.68235 1.31495 5.55777 2.76297 3.90373C4.211 2.24969 6.2116 1.17931 8.39113 0.892511C8.94228 0.825214 9.50042 0.93797 9.98222 1.21395C10.464 1.48992 10.8436 1.91432 11.0644 2.42378L14.4615 10.0077V10.027C14.6305 10.417 14.7004 10.8428 14.6647 11.2663C14.6291 11.6899 14.4891 12.098 14.2572 12.4542C14.2283 12.4977 14.1977 12.5379 14.1656 12.5781L10.8167 16.5478C12.0215 18.9959 14.5822 21.5341 17.0624 22.742L20.9774 19.4109C21.0159 19.3785 21.0561 19.3485 21.0981 19.3208C21.454 19.0834 21.8635 18.9385 22.2896 18.8992C22.7156 18.8598 23.1448 18.9274 23.5381 19.0956L23.559 19.1053L31.1366 22.5008C31.6469 22.7208 32.0724 23.1 32.3493 23.5819C32.6261 24.0638 32.7396 24.6223 32.6727 25.174ZM30.1184 24.8524H30.1007L22.5409 21.4665L18.6242 24.7977C18.5863 24.83 18.5466 24.86 18.5052 24.8877C18.1349 25.1348 17.7068 25.2816 17.2627 25.3137C16.8187 25.3459 16.3739 25.2623 15.9719 25.0711C12.9592 23.6154 9.95618 20.6349 8.4989 17.6544C8.30593 17.2553 8.21934 16.8131 8.24752 16.3706C8.2757 15.9282 8.4177 15.5005 8.65975 15.1291C8.68696 15.0855 8.71762 15.044 8.75143 15.0053L12.1035 11.0307L8.7257 3.4709C8.72505 3.46448 8.72505 3.45801 8.7257 3.45159C7.16589 3.65507 5.73374 4.42016 4.69745 5.6036C3.66117 6.78704 3.09182 8.30765 3.09603 9.88067C3.102 15.3392 5.27305 20.5725 9.13284 24.4323C12.9926 28.2921 18.2259 30.4632 23.6845 30.4691C25.2566 30.4745 26.7768 29.9072 27.9609 28.8732C29.145 27.8391 29.912 26.4092 30.1184 24.8507V24.8524Z" fill="#009941"/>
</svg>
