<svg width="23" height="23" viewBox="0 0 23 23" fill="none" xmlns="http://www.w3.org/2000/svg">
<path d="M21.2106 15.6704L16.0458 13.3593C15.8456 13.2726 15.627 13.2372 15.4096 13.2563C15.1923 13.2754 14.9832 13.3484 14.8011 13.4686C14.7866 13.4779 14.7727 13.4881 14.7596 13.4993L12.047 15.8115C11.9867 15.8483 11.9182 15.8697 11.8476 15.8737C11.777 15.8777 11.7065 15.8642 11.6423 15.8345C9.86607 14.9769 8.02745 13.1525 7.16994 11.3971C7.13961 11.3334 7.12553 11.2632 7.12896 11.1928C7.1324 11.1223 7.15324 11.0539 7.18963 10.9935L9.50841 8.23608C9.51935 8.22296 9.52919 8.20874 9.53904 8.19452C9.6589 8.01274 9.73166 7.80399 9.75075 7.58709C9.76985 7.37018 9.73468 7.15193 9.64841 6.95201L7.33291 1.79601C7.22113 1.53487 7.02764 1.31704 6.78151 1.17524C6.53537 1.03344 6.24988 0.975313 5.96789 1.0096C4.59147 1.19107 3.32817 1.86739 2.41395 2.91223C1.49974 3.95708 0.997134 5.29898 1.00001 6.68732C1.00001 15.1312 7.86886 22 16.3127 22C17.7011 22.0029 19.043 21.5003 20.0878 20.5861C21.1327 19.6718 21.809 18.4085 21.9905 17.0321C22.0245 16.7514 21.967 16.4672 21.8264 16.2219C21.6859 15.9765 21.4699 15.7831 21.2106 15.6704ZM21.1253 16.9227C20.9708 18.0884 20.3971 19.1579 19.5114 19.9313C18.6257 20.7047 17.4886 21.1291 16.3127 21.125C8.3523 21.125 1.87502 14.6477 1.87502 6.68732C1.87095 5.51146 2.29528 4.37438 3.06868 3.48866C3.84208 2.60293 4.91159 2.02921 6.07727 1.87476C6.09475 1.87367 6.11229 1.87367 6.12977 1.87476C6.21608 1.8755 6.30025 1.90175 6.37168 1.95021C6.4431 1.99867 6.4986 2.06718 6.53118 2.14711L8.84012 7.3031C8.86706 7.36612 8.87882 7.43458 8.87445 7.50298C8.87008 7.57137 8.8497 7.63778 8.81496 7.69686L6.49728 10.4531C6.48634 10.4674 6.4754 10.4805 6.46556 10.4958C6.34208 10.6846 6.26936 10.9021 6.25442 11.1272C6.23947 11.3523 6.28281 11.5775 6.38024 11.781C7.33072 13.7268 9.29075 15.6726 11.2584 16.6231C11.4633 16.7199 11.6898 16.762 11.9157 16.7453C12.1417 16.7286 12.3595 16.6537 12.548 16.5279L12.5885 16.4973L15.3043 14.1872C15.3624 14.1518 15.4281 14.1306 15.4959 14.1254C15.5638 14.1203 15.632 14.1314 15.6947 14.1577L20.8584 16.4721C20.9456 16.5084 21.0186 16.5719 21.0667 16.6531C21.1148 16.7343 21.1354 16.8289 21.1253 16.9227Z" fill="#888888" stroke="#888888" stroke-width="0.4"/>
</svg>
