<svg width="35" height="27" viewBox="0 0 35 27" fill="none" xmlns="http://www.w3.org/2000/svg">
<path d="M32.1731 0.751465H2.69414C2.13569 0.751465 1.60011 0.973308 1.20523 1.36819C0.810344 1.76308 0.588501 2.29865 0.588501 2.8571V23.9135C0.588501 24.472 0.810344 25.0075 1.20523 25.4024C1.60011 25.7973 2.13569 26.0191 2.69414 26.0191H32.1731C32.7315 26.0191 33.2671 25.7973 33.662 25.4024C34.0569 25.0075 34.2787 24.472 34.2787 23.9135V2.8571C34.2787 2.29865 34.0569 1.76308 33.662 1.36819C33.2671 0.973308 32.7315 0.751465 32.1731 0.751465ZM30.5518 23.9135H4.44182L11.8116 16.2911L10.2955 14.8277L2.69414 22.6922V4.45739L15.7807 17.4808C16.1752 17.8729 16.7089 18.0931 17.2652 18.0931C17.8214 18.0931 18.3551 17.8729 18.7496 17.4808L32.1731 4.13102V22.5554L24.4243 14.8066L22.9399 16.2911L30.5518 23.9135ZM4.07333 2.8571H30.4675L17.2652 15.9858L4.07333 2.8571Z" fill="#009941"/>
</svg>
