<svg width="13" height="18" viewBox="0 0 13 18" fill="none" xmlns="http://www.w3.org/2000/svg">
<path d="M12.5 6.3C12.5 5.47267 12.3448 4.65345 12.0433 3.88909C11.7417 3.12474 11.2998 2.43024 10.7426 1.84523C10.1855 1.26022 9.52405 0.796163 8.7961 0.479559C8.06815 0.162954 7.28793 0 6.5 0C5.71207 0 4.93185 0.162954 4.2039 0.479559C3.47595 0.796163 2.81451 1.26022 2.25736 1.84523C1.70021 2.43024 1.25825 3.12474 0.956723 3.88909C0.655194 4.65345 0.5 5.47267 0.5 6.3C0.5 7.5483 0.850571 8.7093 1.44714 9.6885H1.44029L6.5 18L11.5597 9.6885H11.5537C12.1716 8.67742 12.5 7.50133 12.5 6.3ZM6.5 9C5.81801 9 5.16396 8.71554 4.68173 8.20919C4.19949 7.70284 3.92857 7.01608 3.92857 6.3C3.92857 5.58392 4.19949 4.89716 4.68173 4.39081C5.16396 3.88446 5.81801 3.6 6.5 3.6C7.18199 3.6 7.83604 3.88446 8.31827 4.39081C8.80051 4.89716 9.07143 5.58392 9.07143 6.3C9.07143 7.01608 8.80051 7.70284 8.31827 8.20919C7.83604 8.71554 7.18199 9 6.5 9Z" fill="white"/>
</svg>
