<svg width="24" height="19" viewBox="0 0 24 19" fill="none" xmlns="http://www.w3.org/2000/svg">
<path d="M1 3.33092C1 2.68682 1.25754 2.0691 1.71596 1.61366C2.17438 1.15821 2.79614 0.902344 3.44444 0.902344H20.5556C21.2039 0.902344 21.8256 1.15821 22.284 1.61366C22.7425 2.0691 23 2.68682 23 3.33092M1 3.33092V15.4738C1 16.1179 1.25754 16.7356 1.71596 17.191C2.17438 17.6465 2.79614 17.9023 3.44444 17.9023H20.5556C21.2039 17.9023 21.8256 17.6465 22.284 17.191C22.7425 16.7356 23 16.1179 23 15.4738V3.33092M1 3.33092L12 10.6166L23 3.33092" stroke="#888888" stroke-width="1.5" stroke-linecap="round" stroke-linejoin="round"/>
</svg>
