<svg width="36" height="28" viewBox="0 0 36 28" fill="none" xmlns="http://www.w3.org/2000/svg">
<path d="M33.75 0.796875H2.25C1.65326 0.796875 1.08097 1.03393 0.65901 1.45588C0.237053 1.87784 0 2.45014 0 3.04688V25.5469C0 26.1436 0.237053 26.7159 0.65901 27.1379C1.08097 27.5598 1.65326 27.7969 2.25 27.7969H33.75C34.3467 27.7969 34.919 27.5598 35.341 27.1379C35.7629 26.7159 36 26.1436 36 25.5469V3.04688C36 2.45014 35.7629 1.87784 35.341 1.45588C34.919 1.03393 34.3467 0.796875 33.75 0.796875ZM32.0175 25.5469H4.1175L11.9925 17.4019L10.3725 15.8381L2.25 24.2419V4.75688L16.2337 18.6731C16.6553 19.0922 17.2256 19.3274 17.82 19.3274C18.4144 19.3274 18.9847 19.0922 19.4062 18.6731L33.75 4.40812V24.0956L25.47 15.8156L23.8837 17.4019L32.0175 25.5469ZM3.72375 3.04688H31.9275L17.82 17.0756L3.72375 3.04688Z" fill="#009941"/>
</svg>
