<svg width="19" height="19" viewBox="0 0 19 19" fill="none" xmlns="http://www.w3.org/2000/svg">
<path d="M1.38144 5.459C2.14553 3.96792 3.3177 2.71446 4.76694 1.83872C6.21618 0.962984 7.88538 0.499475 9.58797 0.5C12.063 0.5 14.1422 1.3919 15.7318 2.8445L13.0989 5.4257C12.1465 4.5338 10.9361 4.0793 9.58797 4.0793C7.19562 4.0793 5.17062 5.6633 4.44971 7.79C4.26603 8.33 4.16134 8.906 4.16134 9.5C4.16134 10.094 4.26603 10.67 4.44971 11.21C5.17154 13.3376 7.19562 14.9207 9.58797 14.9207C10.8232 14.9207 11.8747 14.6012 12.6976 14.0612C13.1746 13.7534 13.583 13.354 13.8981 12.8871C14.2131 12.4203 14.4283 11.8957 14.5306 11.345H9.58797V7.8638H18.2372C18.3455 8.4524 18.4043 9.0662 18.4043 9.7043C18.4043 12.4457 17.4033 14.7533 15.6657 16.3193C14.1467 17.6945 12.0676 18.5 9.58797 18.5C8.38182 18.5005 7.18739 18.268 6.07296 17.8159C4.95853 17.3638 3.94594 16.7008 3.09306 15.865C2.24018 15.0292 1.56373 14.0369 1.10238 12.9447C0.641028 11.8526 0.403815 10.682 0.404298 9.5C0.404298 8.0474 0.758787 6.674 1.38144 5.459Z" fill="white"/>
</svg>
