<svg width="15" height="27" viewBox="0 0 15 27" fill="none" xmlns="http://www.w3.org/2000/svg">
<path d="M10.1429 14.9667H9.57972V15.5299V25.8953H5.31826V15.5299V14.9667H4.75511H1.27744V10.9501H4.75511H5.31826V10.387V6.787C5.31826 4.9613 5.92003 3.61038 6.89273 2.71213C7.8719 1.80791 9.28708 1.30729 11.0089 1.30729C12.3255 1.30729 13.5846 1.37876 14.294 1.43578V4.68099H12.8367C11.4299 4.68099 10.5169 5.00352 10.0194 5.70862C9.78108 6.04649 9.67638 6.42316 9.62716 6.77765C9.57968 7.11963 9.5797 7.47882 9.57972 7.79672V7.81557V10.387V10.9501H10.1429H14.1275L13.0756 14.9667H10.1429Z" fill="#009941" stroke="#009941" stroke-width="1.12629"/>
</svg>
