<svg width="20" height="21" viewBox="0 0 20 21" fill="none" xmlns="http://www.w3.org/2000/svg">
<path d="M2.15 18.7523V18.4023V17.403V17.4023H2.5L2.15 18.7523ZM2.15 18.7523H2.5M2.15 18.7523H2.5M2.5 18.7523H17.5H17.85M2.5 18.7523H17.85M17.85 18.7523V18.4023M17.85 18.7523V18.4023M17.85 18.4023V17.4023C17.85 17.1119 17.7768 16.8401 17.6277 16.5953C17.4825 16.3569 17.2871 16.1678 17.0444 16.0336L17.038 16.03M17.85 18.4023L17.038 16.03M17.038 16.03L17.0315 16.0268M17.038 16.03L17.0315 16.0268M17.0315 16.0268C15.8847 15.4534 14.7248 15.0223 13.5521 14.7349C12.3794 14.4475 11.1952 14.3032 10.0002 14.3023H10M17.0315 16.0268L10 14.3023M10 14.3023C8.80486 14.3023 7.62056 14.4467 6.4477 14.735C5.2751 15.0232 4.11535 15.4542 2.96866 16.0267L2.96176 16.0301M10 14.3023L2.96176 16.0301M2.96176 16.0301L2.95502 16.0339M2.96176 16.0301L2.95502 16.0339M2.95502 16.0339C2.71348 16.1681 2.51855 16.3569 2.3729 16.5944L2.67125 16.7773L2.95502 16.0339ZM10 3.05234H10.0004C10.782 3.05329 11.4594 3.33553 12.0137 3.88986C12.5681 4.4442 12.85 5.12137 12.85 5.90234M10 3.05234L12.5 5.90234M10 3.05234C9.21883 3.05234 8.5416 3.33483 7.9873 3.89007C7.43334 4.44497 7.15095 5.12182 7.15 5.90192V5.90234C7.15 6.6835 7.43246 7.36103 7.98751 7.91608C8.54258 8.47114 9.21983 8.75329 10.0004 8.75234M10 3.05234V8.40234M12.85 5.90234H12.5M12.85 5.90234C12.85 5.9022 12.85 5.90206 12.85 5.90192L12.5 5.90234M12.85 5.90234C12.8508 6.68419 12.5689 7.3619 12.0135 7.91629C11.4585 8.47034 10.7812 8.75224 10.0004 8.75234M12.5 5.90234C12.5008 6.59068 12.2562 7.17943 11.7662 7.66859C11.2762 8.15776 10.6875 8.40234 10 8.40234M10.0004 8.75234L10 8.40234M10.0004 8.75234C10.0003 8.75234 10.0001 8.75234 10 8.75234V8.40234M19.65 17.4019V17.4023V20.5523H0.35V17.4023C0.35 16.7576 0.515135 16.1704 0.845609 15.6332C1.17776 15.0933 1.61445 14.685 2.15897 14.4017C3.42745 13.7676 4.7143 13.2933 6.01978 12.9775C7.32618 12.6615 8.65279 12.5032 10.0002 12.5023C11.3474 12.5024 12.6738 12.6607 13.98 12.9775C15.2857 13.2941 16.5727 13.7685 17.8413 14.4018C18.3865 14.6843 18.8234 15.0924 19.1555 15.633C19.4861 16.1711 19.6508 16.7583 19.65 17.4019ZM10 10.5523C8.71856 10.5523 7.63029 10.1002 6.71624 9.18611C5.80218 8.27205 5.35 7.18378 5.35 5.90234C5.35 4.62091 5.80218 3.53263 6.71624 2.61858C7.63029 1.70453 8.71856 1.25234 10 1.25234C11.2814 1.25234 12.3697 1.70453 13.2838 2.61858C14.1978 3.53263 14.65 4.62091 14.65 5.90234C14.65 7.18378 14.1978 8.27205 13.2838 9.18611C12.3697 10.1002 11.2814 10.5523 10 10.5523Z" fill="#888888" stroke="white" stroke-width="0.7"/>
</svg>
