<svg width="33" height="34" viewBox="0 0 33 34" fill="none" xmlns="http://www.w3.org/2000/svg">
<path d="M19.8694 3.10991C19.9131 2.9466 19.9885 2.7935 20.0914 2.65936C20.1943 2.52522 20.3226 2.41266 20.469 2.32811C20.6153 2.24357 20.777 2.18869 20.9446 2.16663C21.1122 2.14456 21.2825 2.15574 21.4457 2.19951C23.8312 2.82191 26.0076 4.06895 27.7509 5.8122C29.4942 7.55546 30.7412 9.7319 31.3636 12.1174C31.4074 12.2806 31.4185 12.451 31.3965 12.6186C31.3744 12.7862 31.3195 12.9478 31.235 13.0941C31.1504 13.2405 31.0379 13.3688 30.9037 13.4717C30.7696 13.5746 30.6165 13.65 30.4532 13.6937C30.3445 13.7223 30.2326 13.7369 30.1202 13.7371C29.8367 13.7371 29.5611 13.6434 29.3362 13.4706C29.1114 13.2979 28.9499 13.0557 28.8769 12.7817C28.3693 10.8343 27.3515 9.05758 25.9285 7.63459C24.5055 6.21159 22.7288 5.19383 20.7814 4.68621C20.618 4.64271 20.4647 4.5674 20.3304 4.46461C20.1961 4.36181 20.0833 4.23355 19.9986 4.08714C19.9139 3.94074 19.8589 3.77907 19.8367 3.61139C19.8146 3.4437 19.8257 3.2733 19.8694 3.10991ZM19.4947 9.83333C21.7127 10.4253 23.1379 11.8504 23.7298 14.0684C23.8028 14.3424 23.9643 14.5847 24.1891 14.7574C24.4139 14.9302 24.6896 15.0239 24.9731 15.0239C25.0855 15.0237 25.1974 15.0091 25.3061 14.9805C25.4694 14.9368 25.6225 14.8613 25.7566 14.7585C25.8908 14.6556 26.0033 14.5273 26.0879 14.3809C26.1724 14.2345 26.2273 14.0729 26.2494 13.9053C26.2714 13.7377 26.2602 13.5674 26.2165 13.4041C25.3929 10.3223 23.2408 8.17017 20.159 7.34663C19.8292 7.25854 19.478 7.30505 19.1825 7.47594C18.887 7.64682 18.6715 7.92808 18.5835 8.25783C18.4954 8.58759 18.5419 8.93884 18.7128 9.2343C18.8836 9.52976 19.1649 9.74524 19.4947 9.83333ZM32.6745 25.1701C32.3877 27.3497 31.3173 29.3503 29.6633 30.7983C28.0092 32.2463 25.8847 33.0427 23.6863 33.0388C10.9151 33.0388 0.524307 22.6481 0.524307 9.87676C0.520366 7.67845 1.31678 5.55386 2.7648 3.89982C4.21283 2.24579 6.21343 1.17541 8.39296 0.888605C8.94411 0.821308 9.50225 0.934064 9.98405 1.21004C10.4658 1.48602 10.8455 1.91041 11.0662 2.41987L14.4633 10.0038V10.0231C14.6324 10.4131 14.7022 10.8389 14.6665 11.2624C14.6309 11.686 14.4909 12.0941 14.2591 12.4503C14.2301 12.4938 14.1996 12.534 14.1674 12.5742L10.8185 16.5439C12.0233 18.992 14.584 21.5302 17.0643 22.7381L20.9793 19.407C21.0177 19.3746 21.058 19.3445 21.0999 19.3169C21.4559 19.0795 21.8654 18.9346 22.2914 18.8953C22.7175 18.8559 23.1466 18.9235 23.54 19.0917L23.5609 19.1014L31.1384 22.4969C31.6488 22.7169 32.0742 23.0961 32.3511 23.578C32.628 24.0599 32.7414 24.6184 32.6745 25.1701ZM30.1202 24.8484H30.1025L22.5427 21.4626L18.6261 24.7938C18.5882 24.8261 18.5484 24.8561 18.5071 24.8838C18.1367 25.1309 17.7086 25.2777 17.2646 25.3098C16.8205 25.342 16.3758 25.2584 15.9737 25.0672C12.961 23.6115 9.95801 20.631 8.50073 17.6505C8.30776 17.2514 8.22117 16.8092 8.24935 16.3667C8.27753 15.9243 8.41953 15.4966 8.66158 15.1252C8.68879 15.0816 8.71945 15.0401 8.75326 15.0014L12.1053 11.0268L8.72753 3.46699C8.72688 3.46057 8.72688 3.45411 8.72753 3.44769C7.16772 3.65116 5.73557 4.41625 4.69928 5.59969C3.663 6.78313 3.09365 8.30374 3.09787 9.87676C3.10383 15.3353 5.27488 20.5686 9.13467 24.4284C12.9945 28.2882 18.2278 30.4593 23.6863 30.4652C25.2584 30.4706 26.7786 29.9033 27.9627 28.8692C29.1469 27.8352 29.9138 26.4053 30.1202 24.8468V24.8484Z" fill="#009941"/>
</svg>
