<svg width="28" height="23" viewBox="0 0 28 23" fill="none" xmlns="http://www.w3.org/2000/svg">
<path d="M0 1.76077C0 0.788322 0.788321 0 1.76077 0H26.2392C27.2117 0 28 0.788322 28 1.76077C28 2.73321 27.2117 3.52153 26.2392 3.52153H1.76076C0.788321 3.52153 0 2.73321 0 1.76077ZM0 11.5C0 10.5276 0.788321 9.73923 1.76076 9.73923H26.2392C27.2117 9.73923 28 10.5276 28 11.5C28 12.4724 27.2117 13.2608 26.2392 13.2608H1.76076C0.788321 13.2608 0 12.4724 0 11.5ZM0 21.2392C0 20.2668 0.788321 19.4785 1.76076 19.4785H26.2392C27.2117 19.4785 28 20.2668 28 21.2392C28 22.2117 27.2117 23 26.2392 23H1.76076C0.788321 23 0 22.2117 0 21.2392Z" fill="#009941"/>
</svg>
