<svg width="24" height="19" viewBox="0 0 24 19" fill="none" xmlns="http://www.w3.org/2000/svg">
<path d="M1 3.42857C1 2.78447 1.25754 2.16676 1.71596 1.71131C2.17438 1.25587 2.79614 1 3.44444 1H20.5556C21.2039 1 21.8256 1.25587 22.284 1.71131C22.7425 2.16676 23 2.78447 23 3.42857M1 3.42857V15.5714C1 16.2155 1.25754 16.8332 1.71596 17.2887C2.17438 17.7441 2.79614 18 3.44444 18H20.5556C21.2039 18 21.8256 17.7441 22.284 17.2887C22.7425 16.8332 23 16.2155 23 15.5714V3.42857M1 3.42857L12 10.7143L23 3.42857" stroke="#888888" stroke-width="1.5" stroke-linecap="round" stroke-linejoin="round"/>
</svg>
