<svg width="36" height="28" viewBox="0 0 36 28" fill="none" xmlns="http://www.w3.org/2000/svg">
<path d="M33.75 0.894531H2.25C1.65326 0.894531 1.08097 1.13158 0.65901 1.55354C0.237053 1.9755 0 2.54779 0 3.14453V25.6445C0 26.2413 0.237053 26.8136 0.65901 27.2355C1.08097 27.6575 1.65326 27.8945 2.25 27.8945H33.75C34.3467 27.8945 34.919 27.6575 35.341 27.2355C35.7629 26.8136 36 26.2413 36 25.6445V3.14453C36 2.54779 35.7629 1.9755 35.341 1.55354C34.919 1.13158 34.3467 0.894531 33.75 0.894531ZM32.0175 25.6445H4.1175L11.9925 17.4995L10.3725 15.9358L2.25 24.3395V4.85453L16.2337 18.7708C16.6553 19.1898 17.2256 19.4251 17.82 19.4251C18.4144 19.4251 18.9847 19.1898 19.4062 18.7708L33.75 4.50578V24.1933L25.47 15.9133L23.8837 17.4995L32.0175 25.6445ZM3.72375 3.14453H31.9275L17.82 17.1733L3.72375 3.14453Z" fill="#009941"/>
</svg>
