<svg width="20" height="20" viewBox="0 0 20 20" fill="none" xmlns="http://www.w3.org/2000/svg">
<path d="M15.9695 1.40679L15.9695 1.40678C15.414 1.19171 14.7704 1.03843 13.8002 0.994556C12.7979 0.949228 12.4826 0.938003 9.9043 0.938003C7.32572 0.938003 7.01069 0.948374 6.0079 0.994537L15.9695 1.40679ZM15.9695 1.40679L15.9728 1.40804M15.9695 1.40679L15.9728 1.40804M15.9728 1.40804C16.5466 1.62488 17.0671 1.96381 17.4975 2.40205L17.4975 2.4021M15.9728 1.40804L17.4975 2.4021M17.4975 2.4021L17.5034 2.40791M17.4975 2.4021L17.5034 2.40791M17.5034 2.40791C17.9413 2.83719 18.2792 3.35646 18.4951 3.9308L18.4951 3.93081M17.5034 2.40791L18.4951 3.93081M18.4951 3.93081L18.4969 3.93528M18.4951 3.93081L18.4969 3.93528M18.4969 3.93528C18.7125 4.49029 18.865 5.13371 18.9098 6.10274C18.9559 7.10725 18.9663 7.42233 18.9663 10C18.9663 12.5782 18.9551 12.8936 18.9097 13.8968C18.8659 14.8652 18.7126 15.5086 18.4969 16.0639L18.4968 16.0639M18.4969 3.93528L18.4968 16.0639M18.4968 16.0639L18.4951 16.0684M18.4968 16.0639L18.4951 16.0684M18.4951 16.0684C18.2792 16.6428 17.9406 17.1632 17.503 17.5934L17.5029 17.5933M18.4951 16.0684L17.5029 17.5933M17.5029 17.5933L17.4975 17.5988M17.5029 17.5933L17.4975 17.5988M17.4975 17.5988C17.0673 18.0368 16.5471 18.3749 15.9733 18.5909L15.9733 18.5909M17.4975 17.5988L15.9733 18.5909M15.9733 18.5909L15.969 18.5926M15.9733 18.5909L15.969 18.5926M15.969 18.5926C15.414 18.8082 14.7706 18.9607 13.8016 19.0055C12.7979 19.0516 12.4829 19.062 9.9043 19.062C7.32606 19.062 7.01071 19.0508 6.00753 19.0054C5.03906 18.9616 4.3957 18.8083 3.84044 18.5926L3.84045 18.5925M15.969 18.5926L3.84045 18.5925M3.84045 18.5925L3.83596 18.5908M3.84045 18.5925L3.83596 18.5908M3.83596 18.5908C3.26156 18.3749 2.74113 18.0363 2.31091 17.5987L2.31096 17.5986M3.83596 18.5908L2.31096 17.5986M2.31096 17.5986L2.3054 17.5932M2.31096 17.5986L2.3054 17.5932M2.3054 17.5932C1.86755 17.1634 1.52872 16.6432 1.31253 16.069L1.31254 16.069M2.3054 17.5932L1.31254 16.069M1.31254 16.069L1.31108 16.0652M1.31254 16.069L1.31108 16.0652M1.31108 16.0652C1.09609 15.5099 0.943566 14.8663 0.898838 13.8973L1.31108 16.0652ZM1.31109 3.93478L1.31108 3.93477C1.096 4.49031 0.942727 5.13387 0.898853 6.10406C0.853525 7.1064 0.8423 7.42171 0.8423 10C0.8423 12.5777 0.85267 12.8927 0.898834 13.8973L1.31109 3.93478ZM1.31109 3.93478L1.31245 3.93117M1.31109 3.93478L1.31245 3.93117M1.31245 3.93117C1.52898 3.3569 1.8681 2.83674 2.30618 2.40692L2.30624 2.40698M1.31245 3.93117L2.30624 2.40698M2.30624 2.40698L2.31206 2.40105M2.30624 2.40698L2.31206 2.40105M2.31206 2.40105C2.74163 1.9633 3.26148 1.62447 3.8354 1.40818L3.8354 1.4082M2.31206 2.40105L3.8354 1.4082M3.8354 1.4082L3.83907 1.40678M3.8354 1.4082L3.83907 1.40678M3.83907 1.40678C4.39434 1.19181 5.03881 1.03927 6.00785 0.99454L3.83907 1.40678ZM10.9525 13.4556C10.1529 13.6974 9.29408 13.6541 8.52281 13.3331C8.03029 13.1288 7.58917 12.8179 7.2312 12.4227C6.87316 12.0274 6.60721 11.5577 6.4525 11.0473C6.29779 10.5369 6.25817 9.99855 6.33649 9.47101C6.41481 8.94347 6.60911 8.43986 6.90543 7.99643C7.20174 7.553 7.59268 7.18078 8.05011 6.90657C8.50754 6.63237 9.02008 6.46299 9.55082 6.41064C10.0816 6.35829 10.6173 6.42427 11.1195 6.60383C11.6215 6.78332 12.0775 7.07184 12.4546 7.44863L10.9525 13.4556ZM10.9525 13.4556C11.7522 13.2137 12.4432 12.7018 12.9074 12.0071M10.9525 13.4556L12.9074 12.0071M12.9074 12.0071C13.3716 11.3124 13.5802 10.4782 13.4977 9.64675M12.9074 12.0071L13.4977 9.64675M13.4977 9.64675C13.4151 8.81538 13.0464 8.03846 12.4547 7.44868L13.4977 9.64675ZM15.5697 5.52557C15.6395 5.45978 15.6953 5.38067 15.7339 5.29292C15.7725 5.20516 15.7932 5.11055 15.7946 5.01469C15.796 4.91883 15.7781 4.82366 15.7421 4.73482M15.5697 5.52557L15.7421 4.73482M15.5697 5.52557C15.4341 5.65352 15.254 5.72357 15.0675 5.72085C14.8811 5.71813 14.703 5.64286 14.5712 5.51101C14.4393 5.37917 14.3641 5.20113 14.3614 5.01469C14.3586 4.82825 14.4287 4.6481 14.5566 4.51246C14.6224 4.44272 14.7015 4.38689 14.7893 4.34828C14.877 4.30966 14.9717 4.28904 15.0675 4.28764C15.1634 4.28624 15.2585 4.3041 15.3474 4.34014C15.4362 4.37618 15.5169 4.42968 15.5847 4.49748C15.6525 4.56527 15.706 4.64598 15.7421 4.73482M15.5697 5.52557L16.1479 4.57015L15.7421 4.73482M4.14217 2.18614L4.14193 2.18623C3.645 2.37996 3.27679 2.61702 2.90092 2.99241C2.54089 3.3433 2.26354 3.76999 2.08904 4.24146C1.94194 4.62023 1.77813 5.16933 1.73375 6.14114C1.68751 7.15315 1.67802 7.46169 1.67802 10C1.67802 12.5383 1.68751 12.8468 1.73375 13.8588C1.77813 14.8307 1.94195 15.3798 2.08905 15.7586C2.263 16.2283 2.53964 16.6549 2.89878 17.0055C3.24934 17.3646 3.67593 17.6413 4.14565 17.8152C4.52443 17.9623 5.07355 18.1262 6.04545 18.1705C7.05745 18.2168 7.36512 18.2263 9.9043 18.2263C12.4435 18.2263 12.7511 18.2168 13.7632 18.1705C14.738 18.126 15.2875 17.9613 15.6664 17.8139L15.6667 17.8138C16.1636 17.62 16.5318 17.383 16.9077 17.0076C17.2679 16.6566 17.5452 16.2293 17.7195 15.7586C17.8666 15.3799 18.0305 14.8308 18.0748 13.8588C18.1211 12.8468 18.1306 12.5383 18.1306 10C18.1306 7.46169 18.1211 7.15315 18.0748 6.14114C18.0303 5.16627 17.8656 4.61676 17.7182 4.23787L17.7181 4.23763C17.5243 3.74068 17.2873 3.37246 16.9118 2.99658C16.561 2.6366 16.1343 2.35928 15.6629 2.18475C15.2841 2.03765 14.735 1.87383 13.7632 1.82945C12.7511 1.78322 12.4426 1.77372 9.9043 1.77372C7.36599 1.77372 7.05746 1.78321 6.04545 1.82945C5.07056 1.87397 4.52106 2.03868 4.14217 2.18614ZM6.76119 6.8569C7.17395 6.44414 7.66397 6.11672 8.20326 5.89334C8.74256 5.66996 9.32057 5.55498 9.9043 5.55498C10.488 5.55498 11.066 5.66995 11.6053 5.89334C12.1446 6.11672 12.6346 6.44414 13.0474 6.8569C13.4602 7.26965 13.7876 7.75967 14.011 8.29896C14.2343 8.83826 14.3493 9.41627 14.3493 10C14.3493 10.5837 14.2343 11.1617 14.011 11.701C13.7876 12.2403 13.4602 12.7303 13.0474 13.1431C12.2138 13.9767 11.0832 14.445 9.9043 14.445C8.72541 14.445 7.5948 13.9767 6.76119 13.1431C5.92759 12.3095 5.45928 11.1789 5.45928 10C5.45928 8.82111 5.92759 7.6905 6.76119 6.8569Z" fill="#EFF4E7" stroke="#009941" stroke-width="0.876006"/>
</svg>
