<svg width="18" height="18" viewBox="0 0 18 18" fill="none" xmlns="http://www.w3.org/2000/svg">
<path d="M8.99805 1.93891H8.99843C9.70181 1.93976 10.3115 2.19377 10.8104 2.69267C11.3092 3.19149 11.563 3.80081 11.563 4.50353C11.563 4.50365 11.563 4.50378 11.563 4.50391H11.248C11.2488 5.12341 11.0287 5.65328 10.5877 6.09353C10.1467 6.53378 9.6168 6.75391 8.99805 6.75391V1.93891ZM8.99805 1.93891C8.295 1.93891 7.68549 2.19314 7.18662 2.69286C6.68805 3.19227 6.4339 3.80143 6.43305 4.50352V4.50391C6.43305 5.20694 6.68726 5.81672 7.18681 6.31627C7.68627 6.81574 8.29567 7.06967 8.99805 7.06891V1.93891ZM17.683 14.8535V14.8539C17.683 16.4196 16.4138 17.6889 14.848 17.6889H3.14805C1.58232 17.6889 0.313047 16.4196 0.313047 14.8539C0.313047 14.2736 0.461668 13.7452 0.759095 13.2617C1.05803 12.7758 1.45105 12.4083 1.94112 12.1533C3.08275 11.5827 4.24091 11.1558 5.41585 10.8716C6.59161 10.5872 7.78556 10.4446 8.99824 10.4439C10.2107 10.4439 11.4045 10.5865 12.5801 10.8715C13.7552 11.1565 14.9135 11.5835 16.0553 12.1535C16.5459 12.4077 16.9391 12.775 17.238 13.2615C17.5355 13.7458 17.6837 14.2742 17.683 14.8535ZM15.338 13.622L15.3381 13.6218L15.3264 13.6159C14.2943 13.0999 13.2504 12.7119 12.1949 12.4532C11.1395 12.1945 10.0737 12.0647 8.99827 12.0639H8.99805C7.92242 12.0639 6.85655 12.1938 5.80098 12.4533C4.74564 12.7127 3.70186 13.1006 2.66984 13.6158L2.6697 13.6156L2.65757 13.6223C2.44018 13.7431 2.26475 13.913 2.13365 14.1267C1.99824 14.3475 1.9321 14.5928 1.93305 14.8551L2.24805 14.8539H1.93305C1.93305 15.5249 2.47702 16.0689 3.14805 16.0689H14.848C15.5191 16.0689 16.063 15.5249 16.063 14.8539C16.063 14.5925 15.9971 14.3479 15.863 14.1276C15.7323 13.913 15.5564 13.7428 15.338 13.622ZM8.99805 8.68891C7.84475 8.68891 6.86531 8.28194 6.04266 7.45929C5.22001 6.63664 4.81305 5.6572 4.81305 4.50391C4.81305 3.35061 5.22001 2.37117 6.04266 1.54852C6.86531 0.725873 7.84475 0.318906 8.99805 0.318906C10.1513 0.318906 11.1308 0.725873 11.9534 1.54852C12.7761 2.37117 13.183 3.35061 13.183 4.50391C13.183 5.6572 12.7761 6.63664 11.9534 7.45929C11.1308 8.28194 10.1513 8.68891 8.99805 8.68891Z" fill="#888888" stroke="white" stroke-width="0.63"/>
</svg>
