<svg width="26" height="26" viewBox="0 0 26 26" fill="none" xmlns="http://www.w3.org/2000/svg">
<path d="M20.7268 1.91002L20.7268 1.91C20.0125 1.63348 19.1851 1.43641 17.9377 1.38C16.649 1.32172 16.2436 1.30729 12.9286 1.30729C9.61332 1.30729 9.20828 1.32062 7.91899 1.37997L20.7268 1.91002ZM20.7268 1.91002L20.731 1.91162M20.7268 1.91002L20.731 1.91162M20.731 1.91162C21.4688 2.19042 22.138 2.62619 22.6914 3.18963L22.6913 3.1897M20.731 1.91162L22.6913 3.1897M22.6913 3.1897L22.6989 3.19717M22.6913 3.1897L22.6989 3.19717M22.6989 3.19717C23.2619 3.7491 23.6963 4.41674 23.974 5.15516L23.974 5.15518M22.6989 3.19717L23.974 5.15518M23.974 5.15518L23.9762 5.16092M23.974 5.15518L23.9762 5.16092M23.9762 5.16092C24.2535 5.87449 24.4496 6.70172 24.5071 7.94755M23.9762 5.16092L23.9762 20.7548M23.9762 20.7548L23.9762 20.7548C24.2536 20.0409 24.4507 19.2137 24.5071 17.9686C24.5653 16.6788 24.5798 16.2733 24.5798 12.9584C24.5798 9.64418 24.5664 9.23916 24.5071 7.94755M23.9762 20.7548L23.974 20.7606M23.9762 20.7548L23.974 20.7606M24.5071 7.94755L25.0696 7.9217M24.5071 7.94755C24.5071 7.94759 24.5071 7.94763 24.5071 7.94766L25.0696 7.9217M25.0696 7.9217C25.1296 9.22641 25.1429 9.64169 25.1429 12.9584C25.1429 16.2763 25.1285 16.6916 25.0696 17.994V7.9217ZM23.974 20.7606C23.6963 21.4991 23.261 22.1682 22.6984 22.7213L22.6983 22.7213M23.974 20.7606L22.6983 22.7213M22.6983 22.7213L22.6914 22.7283M22.6983 22.7213L22.6914 22.7283M22.6914 22.7283C22.1383 23.2915 21.4693 23.7261 20.7317 24.0039L20.7317 24.0039M22.6914 22.7283L20.7317 24.0039M20.7317 24.0039L20.7261 24.006M20.7317 24.0039L20.7261 24.006M20.7261 24.006C20.0126 24.2833 19.1853 24.4794 17.9394 24.5369C16.649 24.5962 16.2439 24.6096 12.9286 24.6096C9.61376 24.6096 9.20831 24.5951 7.91851 24.5369C6.67334 24.4805 5.84615 24.2834 5.13225 24.006L5.13226 24.006M20.7261 24.006L5.13226 24.006M5.13226 24.006L5.1265 24.0038M5.13226 24.006L5.1265 24.0038M5.1265 24.0038C4.38798 23.7261 3.71886 23.2908 3.16571 22.7281L3.16578 22.7281M5.1265 24.0038L3.16578 22.7281M3.16578 22.7281L3.15863 22.7211M3.16578 22.7281L3.15863 22.7211M3.15863 22.7211C2.59568 22.1685 2.16004 21.4997 1.88208 20.7615L1.8821 20.7615M3.15863 22.7211L1.8821 20.7615M1.8821 20.7615L1.88022 20.7566M1.8821 20.7615L1.88022 20.7566M1.88022 20.7566C1.6038 20.0426 1.4077 19.2151 1.35019 17.9693L1.88022 20.7566ZM1.88024 5.16028L1.88022 5.16027C1.60369 5.87453 1.40662 6.70197 1.35021 7.94936C1.29193 9.23809 1.2775 9.64348 1.2775 12.9584C1.2775 16.2726 1.29083 16.6777 1.35019 17.9692L1.88024 5.16028ZM1.88024 5.16028L1.88199 5.15564M1.88024 5.16028L1.88199 5.15564M1.88199 5.15564C2.16038 4.4173 2.59638 3.74852 3.15964 3.1959L3.15971 3.19597M1.88199 5.15564L3.15971 3.19597M3.15971 3.19597L3.16719 3.18835M3.15971 3.19597L3.16719 3.18835M3.16719 3.18835C3.7195 2.62552 4.38788 2.18989 5.12577 1.9118L5.12578 1.91182M3.16719 3.18835L5.12578 1.91182M5.12578 1.91182L5.13049 1.91M5.12578 1.91182L5.13049 1.91M5.13049 1.91C5.84441 1.63361 6.67301 1.43749 7.91892 1.37998L5.13049 1.91ZM14.2763 17.4013C13.2481 17.7122 12.1439 17.6565 11.1522 17.2437L14.2763 17.4013ZM14.2763 17.4013C15.3046 17.0904 16.193 16.4321 16.7898 15.539M14.2763 17.4013L16.7898 15.539M16.7898 15.539C17.3866 14.6458 17.6548 13.5732 17.5487 12.5043M16.7898 15.539L17.5487 12.5043M17.5487 12.5043C17.4425 11.4354 16.9686 10.4366 16.2078 9.6783M17.5487 12.5043L16.2078 9.6783M16.2078 9.6783C15.7229 9.19375 15.1366 8.82273 14.491 8.59192C13.8454 8.36106 13.1566 8.27623 12.4742 8.34354C11.7918 8.41085 11.1328 8.62861 10.5447 8.98116C9.95656 9.33371 9.45392 9.81228 9.07295 10.3824C8.69198 10.9525 8.44215 11.6 8.34146 12.2783C8.24076 12.9566 8.29171 13.6487 8.49062 14.3049C8.68953 14.9611 9.03147 15.5651 9.49181 16.0733C9.95197 16.5813 10.519 16.981 11.1521 17.2437L16.2078 9.6783ZM5.52019 2.91203L5.51988 2.91215C4.88097 3.16124 4.40755 3.46603 3.92429 3.94867C3.46139 4.39982 3.10481 4.94842 2.88045 5.5546C2.69132 6.04159 2.48071 6.74757 2.42365 7.99704C2.3642 9.2982 2.352 9.69488 2.352 12.9584C2.352 16.222 2.3642 16.6187 2.42365 17.9198C2.48071 19.1693 2.69133 19.8753 2.88046 20.3623C3.1041 20.9663 3.45977 21.5147 3.92152 21.9655C4.37225 22.4272 4.92075 22.7829 5.52471 23.0066C6.01171 23.1957 6.71771 23.4064 7.96727 23.4634C9.26841 23.5229 9.66399 23.5351 12.9286 23.5351C16.1933 23.5351 16.5889 23.5229 17.89 23.4634C19.1434 23.4062 19.8499 23.1944 20.3371 23.0048L20.3374 23.0047C20.9763 22.7556 21.4497 22.4508 21.9329 21.9682C22.3961 21.517 22.7527 20.9675 22.9768 20.3623C23.1659 19.8753 23.3766 19.1693 23.4336 17.9198C23.4931 16.6187 23.5053 16.222 23.5053 12.9584C23.5053 9.69488 23.4931 9.2982 23.4336 7.99704C23.3764 6.74362 23.1646 6.03712 22.975 5.54998L22.9749 5.54966C22.7258 4.91077 22.421 4.43735 21.9384 3.9541C21.4873 3.49123 20.9387 3.13465 20.3325 2.91025C19.8455 2.72112 19.1395 2.5105 17.89 2.45344C16.5889 2.39399 16.1922 2.38179 12.9286 2.38179C9.6651 2.38179 9.26842 2.39399 7.96727 2.45344C6.71384 2.51068 6.00733 2.72245 5.52019 2.91203ZM20.4239 6.90646L20.9393 7.13329L20.4239 6.90646C20.3742 7.01929 20.3025 7.121 20.2128 7.20559L20.5992 7.61523L20.2128 7.20559C20.0384 7.37009 19.8068 7.46015 19.5671 7.45666C19.3274 7.45316 19.0984 7.35639 18.9289 7.18687C18.7594 7.01736 18.6626 6.78845 18.6592 6.54874C18.6557 6.30904 18.7457 6.07741 18.9102 5.90302C18.9948 5.81336 19.0965 5.74157 19.2093 5.69192C19.3222 5.64227 19.4438 5.61576 19.5671 5.61397C19.6903 5.61217 19.8127 5.63512 19.9269 5.68146C20.0411 5.7278 20.1449 5.79659 20.2321 5.88375C20.3192 5.97091 20.388 6.07468 20.4343 6.1889C20.4807 6.30313 20.5036 6.42549 20.5018 6.54874C20.5 6.672 20.4735 6.79364 20.4239 6.90646ZM8.88751 8.91729C9.4182 8.3866 10.0482 7.96564 10.7416 7.67843C11.435 7.39123 12.1781 7.2434 12.9286 7.2434C13.6791 7.2434 14.4223 7.39122 15.1157 7.67843C15.8091 7.96564 16.4391 8.3866 16.9698 8.91729C17.5005 9.44798 17.9214 10.078 18.2086 10.7714C18.4958 11.4648 18.6437 12.2079 18.6437 12.9584C18.6437 13.7089 18.4958 14.4521 18.2086 15.1455C17.9214 15.8389 17.5005 16.4689 16.9698 16.9996C15.898 18.0713 14.4444 18.6735 12.9286 18.6735C11.4129 18.6735 9.95928 18.0713 8.88751 16.9996C7.81573 15.9278 7.21362 14.4741 7.21362 12.9584C7.21362 11.4427 7.81573 9.98907 8.88751 8.91729Z" fill="#EFF4E7" stroke="#009941" stroke-width="1.12629"/>
</svg>
