<svg width="18" height="17" viewBox="0 0 18 17" fill="none" xmlns="http://www.w3.org/2000/svg">
<path fill-rule="evenodd" clip-rule="evenodd" d="M13.0057 17.0069C11.7796 16.9617 8.30492 16.4814 4.66587 12.8419C1.02767 9.20162 0.548312 5.72656 0.502335 4.49922C0.43422 2.62882 1.86634 0.812077 3.52069 0.102586C3.7199 0.0165329 3.93806 -0.0162301 4.15376 0.00751192C4.36945 0.0312539 4.57527 0.110685 4.75102 0.238011C6.11332 1.23113 7.05331 2.73358 7.86047 3.91493C8.03807 4.17448 8.114 4.49032 8.07381 4.80226C8.03361 5.11421 7.88009 5.40046 7.6425 5.60647L5.98135 6.84063C5.90109 6.8986 5.8446 6.98374 5.82236 7.08024C5.80013 7.17673 5.81366 7.27802 5.86044 7.36529C6.23678 8.04923 6.90601 9.0679 7.6723 9.83446C8.43945 10.601 9.50545 11.3148 10.2368 11.7338C10.3285 11.7853 10.4365 11.7997 10.5385 11.774C10.6405 11.7484 10.7287 11.6846 10.7852 11.5958L11.8665 9.94944C12.0653 9.68528 12.3586 9.50831 12.6849 9.4556C13.0112 9.40288 13.3452 9.47852 13.6171 9.66667C14.815 10.4963 16.2131 11.4204 17.2365 12.7312C17.3741 12.9083 17.4617 13.1191 17.49 13.3416C17.5183 13.5641 17.4863 13.7901 17.3974 13.996C16.6848 15.6594 14.8814 17.0759 13.0057 17.0069Z" fill="white"/>
</svg>
