<svg width="26" height="26" viewBox="0 0 26 26" fill="none" xmlns="http://www.w3.org/2000/svg">
<path d="M20.7267 1.91002L20.7267 1.91C20.0124 1.63348 19.185 1.43641 17.9376 1.38C16.6489 1.32172 16.2435 1.30729 12.9285 1.30729C9.6132 1.30729 9.20816 1.32062 7.91887 1.37997L20.7267 1.91002ZM20.7267 1.91002L20.7309 1.91162M20.7267 1.91002L20.7309 1.91162M20.7309 1.91162C21.4687 2.19042 22.1379 2.62619 22.6912 3.18963L22.6912 3.1897M20.7309 1.91162L22.6912 3.1897M22.6912 3.1897L22.6988 3.19717M22.6912 3.1897L22.6988 3.19717M22.6988 3.19717C23.2618 3.7491 23.6962 4.41674 23.9739 5.15516L23.9739 5.15518M22.6988 3.19717L23.9739 5.15518M23.9739 5.15518L23.9761 5.16092M23.9739 5.15518L23.9761 5.16092M23.9761 5.16092C24.2534 5.87449 24.4495 6.70172 24.507 7.94755M23.9761 5.16092L23.9761 20.7548M23.9761 20.7548L23.9761 20.7548C24.2535 20.0409 24.4505 19.2137 24.5069 17.9686C24.5652 16.6788 24.5797 16.2733 24.5797 12.9584C24.5797 9.64418 24.5663 9.23916 24.507 7.94755M23.9761 20.7548L23.9739 20.7606M23.9761 20.7548L23.9739 20.7606M24.507 7.94755L25.0695 7.9217M24.507 7.94755C24.507 7.94759 24.507 7.94763 24.507 7.94766L25.0695 7.9217M25.0695 7.9217C25.1295 9.22641 25.1428 9.64169 25.1428 12.9584C25.1428 16.2763 25.1284 16.6916 25.0695 17.994V7.9217ZM23.9739 20.7606C23.6962 21.4991 23.2609 22.1682 22.6982 22.7213L22.6982 22.7213M23.9739 20.7606L22.6982 22.7213M22.6982 22.7213L22.6912 22.7283M22.6982 22.7213L22.6912 22.7283M22.6912 22.7283C22.1381 23.2915 21.4692 23.7261 20.7315 24.0039L20.7315 24.0039M22.6912 22.7283L20.7315 24.0039M20.7315 24.0039L20.726 24.006M20.7315 24.0039L20.726 24.006M20.726 24.006C20.0124 24.2833 19.1852 24.4794 17.9393 24.5369C16.6489 24.5962 16.2438 24.6096 12.9285 24.6096C9.61364 24.6096 9.20819 24.5951 7.91839 24.5369C6.67322 24.4805 5.84603 24.2834 5.13213 24.006L5.13214 24.006M20.726 24.006L5.13214 24.006M5.13214 24.006L5.12637 24.0038M5.13214 24.006L5.12637 24.0038M5.12637 24.0038C4.38786 23.7261 3.71874 23.2908 3.16559 22.7281L3.16565 22.7281M5.12637 24.0038L3.16565 22.7281M3.16565 22.7281L3.15851 22.7211M3.16565 22.7281L3.15851 22.7211M3.15851 22.7211C2.59556 22.1685 2.15992 21.4997 1.88196 20.7615L1.88198 20.7615M3.15851 22.7211L1.88198 20.7615M1.88198 20.7615L1.88009 20.7566M1.88198 20.7615L1.88009 20.7566M1.88009 20.7566C1.60368 20.0426 1.40758 19.2151 1.35007 17.9693L1.88009 20.7566ZM1.88011 5.16028L1.88009 5.16027C1.60357 5.87453 1.4065 6.70197 1.35009 7.94936C1.29181 9.23809 1.27738 9.64348 1.27738 12.9584C1.27738 16.2726 1.29071 16.6777 1.35007 17.9692L1.88011 5.16028ZM1.88011 5.16028L1.88186 5.15564M1.88011 5.16028L1.88186 5.15564M1.88186 5.15564C2.16025 4.4173 2.59626 3.74852 3.15952 3.1959L3.15959 3.19597M1.88186 5.15564L3.15959 3.19597M3.15959 3.19597L3.16707 3.18835M3.15959 3.19597L3.16707 3.18835M3.16707 3.18835C3.71937 2.62552 4.38776 2.18989 5.12565 1.9118L5.12566 1.91182M3.16707 3.18835L5.12566 1.91182M5.12566 1.91182L5.13037 1.91M5.12566 1.91182L5.13037 1.91M5.13037 1.91C5.84428 1.63361 6.67289 1.43749 7.9188 1.37998L5.13037 1.91ZM14.2762 17.4013C13.248 17.7122 12.1438 17.6565 11.1521 17.2437L14.2762 17.4013ZM14.2762 17.4013C15.3044 17.0904 16.1928 16.4321 16.7897 15.539M14.2762 17.4013L16.7897 15.539M16.7897 15.539C17.3865 14.6458 17.6547 13.5732 17.5485 12.5043M16.7897 15.539L17.5485 12.5043M17.5485 12.5043C17.4424 11.4354 16.9685 10.4366 16.2077 9.6783M17.5485 12.5043L16.2077 9.6783M16.2077 9.6783C15.7228 9.19375 15.1364 8.82273 14.4909 8.59192C13.8453 8.36106 13.1564 8.27623 12.4741 8.34354C11.7917 8.41085 11.1327 8.62861 10.5446 8.98116C9.95644 9.33371 9.4538 9.81228 9.07283 10.3824C8.69185 10.9525 8.44203 11.6 8.34134 12.2783C8.24064 12.9566 8.29159 13.6487 8.4905 14.3049C8.68941 14.9611 9.03135 15.5651 9.49168 16.0733C9.95185 16.5813 10.5189 16.981 11.152 17.2437L16.2077 9.6783ZM5.52007 2.91203L5.51976 2.91215C4.88085 3.16124 4.40743 3.46603 3.92417 3.94867C3.46127 4.39982 3.10469 4.94842 2.88032 5.5546C2.6912 6.04159 2.48059 6.74757 2.42353 7.99704C2.36408 9.2982 2.35188 9.69488 2.35188 12.9584C2.35188 16.222 2.36408 16.6187 2.42353 17.9198C2.48059 19.1693 2.69121 19.8753 2.88034 20.3623C3.10398 20.9663 3.45965 21.5147 3.9214 21.9655C4.37213 22.4272 4.92062 22.7829 5.52459 23.0066C6.01158 23.1957 6.71759 23.4064 7.96715 23.4634C9.26829 23.5229 9.66386 23.5351 12.9285 23.5351C16.1932 23.5351 16.5887 23.5229 17.8899 23.4634C19.1433 23.4062 19.8498 23.1944 20.337 23.0048L20.3373 23.0047C20.9762 22.7556 21.4496 22.4508 21.9328 21.9682C22.3959 21.517 22.7526 20.9675 22.9767 20.3623C23.1658 19.8753 23.3764 19.1693 23.4335 17.9198C23.493 16.6187 23.5052 16.222 23.5052 12.9584C23.5052 9.69488 23.493 9.2982 23.4335 7.99704C23.3763 6.74362 23.1645 6.03712 22.9749 5.54998L22.9748 5.54966C22.7257 4.91077 22.4209 4.43735 21.9383 3.9541C21.4871 3.49123 20.9385 3.13465 20.3324 2.91025C19.8454 2.72112 19.1394 2.5105 17.8899 2.45344C16.5887 2.39399 16.1921 2.38179 12.9285 2.38179C9.66498 2.38179 9.2683 2.39399 7.96715 2.45344C6.71372 2.51068 6.00721 2.72245 5.52007 2.91203ZM20.4238 6.90646L20.9392 7.13329L20.4238 6.90646C20.3741 7.01929 20.3023 7.121 20.2127 7.20559L20.5991 7.61523L20.2127 7.20559C20.0383 7.37009 19.8066 7.46015 19.5669 7.45666C19.3272 7.45316 19.0983 7.35639 18.9288 7.18687C18.7593 7.01736 18.6625 6.78845 18.659 6.54874C18.6555 6.30904 18.7456 6.07741 18.9101 5.90302C18.9947 5.81336 19.0964 5.74157 19.2092 5.69192C19.3221 5.64227 19.4437 5.61576 19.5669 5.61397C19.6902 5.61217 19.8126 5.63512 19.9268 5.68146C20.041 5.7278 20.1448 5.79659 20.2319 5.88375C20.3191 5.97091 20.3879 6.07468 20.4342 6.1889C20.4806 6.30313 20.5035 6.42549 20.5017 6.54874C20.4999 6.672 20.4734 6.79364 20.4238 6.90646ZM8.88739 8.91729C9.41808 8.3866 10.0481 7.96564 10.7415 7.67843C11.4349 7.39123 12.178 7.2434 12.9285 7.2434C13.679 7.2434 14.4222 7.39122 15.1156 7.67843C15.8089 7.96564 16.439 8.3866 16.9697 8.91729C17.5003 9.44798 17.9213 10.078 18.2085 10.7714C18.4957 11.4648 18.6435 12.2079 18.6435 12.9584C18.6435 13.7089 18.4957 14.4521 18.2085 15.1455C17.9213 15.8389 17.5003 16.4689 16.9697 16.9996C15.8979 18.0713 14.4442 18.6735 12.9285 18.6735C11.4128 18.6735 9.95916 18.0713 8.88739 16.9996C7.81561 15.9278 7.21349 14.4741 7.21349 12.9584C7.21349 11.4427 7.81561 9.98907 8.88739 8.91729Z" fill="#EFF4E7" stroke="#009941" stroke-width="1.12629"/>
</svg>
