<svg width="35" height="27" viewBox="0 0 35 27" fill="none" xmlns="http://www.w3.org/2000/svg">
<path d="M32.171 0.755371H2.69207C2.13362 0.755371 1.59804 0.977215 1.20315 1.3721C0.808269 1.76698 0.586426 2.30256 0.586426 2.86101V23.9174C0.586426 24.4759 0.808269 25.0114 1.20315 25.4063C1.59804 25.8012 2.13362 26.023 2.69207 26.023H32.171C32.7295 26.023 33.2651 25.8012 33.6599 25.4063C34.0548 25.0114 34.2767 24.4759 34.2767 23.9174V2.86101C34.2767 2.30256 34.0548 1.76698 33.6599 1.3721C33.2651 0.977215 32.7295 0.755371 32.171 0.755371ZM30.5497 23.9174H4.43975L11.8095 16.295L10.2934 14.8316L2.69207 22.6961V4.4613L15.7786 17.4847C16.1731 17.8769 16.7068 18.097 17.2631 18.097C17.8194 18.097 18.3531 17.8769 18.7476 17.4847L32.171 4.13492V22.5593L24.4223 14.8105L22.9378 16.295L30.5497 23.9174ZM4.07126 2.86101H30.4655L17.2631 15.9897L4.07126 2.86101Z" fill="#009941"/>
</svg>
