<svg width="20" height="20" viewBox="0 0 20 20" fill="none" xmlns="http://www.w3.org/2000/svg">
<path d="M18.9727 13.2935L14.3793 11.238C14.2013 11.161 14.0068 11.1295 13.8135 11.1465C13.6202 11.1635 13.4342 11.2284 13.2723 11.3353C13.2594 11.3435 13.247 11.3526 13.2354 11.3625L10.8229 13.4189C10.7692 13.4517 10.7083 13.4707 10.6455 13.4742C10.5827 13.4778 10.52 13.4658 10.463 13.4394C8.88324 12.6767 7.24803 11.0542 6.48539 9.49289C6.45841 9.43628 6.44589 9.37386 6.44895 9.31122C6.452 9.24857 6.47054 9.18767 6.5029 9.13395L8.56515 6.68163C8.57487 6.66996 8.58363 6.65731 8.59238 6.64466C8.69899 6.48299 8.7637 6.29734 8.78068 6.10443C8.79766 5.91152 8.76638 5.71742 8.68966 5.53961L6.63033 0.954039C6.53091 0.72179 6.35883 0.528062 6.13993 0.401947C5.92102 0.275832 5.66711 0.224138 5.41633 0.254627C4.19218 0.416027 3.06864 1.01752 2.25557 1.94677C1.4425 2.87602 0.995498 4.06947 0.998058 5.3042C0.998058 12.8139 7.10698 18.9228 14.6167 18.9228C15.8514 18.9254 17.0449 18.4784 17.9741 17.6653C18.9034 16.8522 19.5049 15.7287 19.6663 14.5045C19.6965 14.2549 19.6454 14.0021 19.5204 13.7839C19.3954 13.5657 19.2033 13.3937 18.9727 13.2935ZM18.8968 14.4073C18.7595 15.444 18.2492 16.3952 17.4615 17.083C16.6737 17.7708 15.6624 18.1482 14.6167 18.1446C7.53694 18.1446 1.77626 12.3839 1.77626 5.3042C1.77264 4.25844 2.15003 3.24715 2.83786 2.45942C3.5257 1.67169 4.47689 1.16144 5.5136 1.02408C5.52915 1.02311 5.54475 1.02311 5.5603 1.02408C5.63706 1.02473 5.71191 1.04808 5.77544 1.09118C5.83896 1.13428 5.88832 1.19521 5.9173 1.26629L7.97079 5.85187C7.99475 5.90791 8.00521 5.9688 8.00132 6.02963C7.99744 6.09046 7.97931 6.14952 7.94842 6.20206L5.88714 8.6534C5.87742 8.66605 5.86769 8.67772 5.85893 8.69134C5.74912 8.85927 5.68444 9.05268 5.67115 9.25289C5.65786 9.4531 5.6964 9.65336 5.78306 9.83433C6.62838 11.5649 8.37157 13.2954 10.1216 14.1407C10.3038 14.2268 10.5052 14.2643 10.7061 14.2494C10.9071 14.2346 11.1008 14.168 11.2684 14.0561L11.3044 14.0289L13.7198 11.9744C13.7715 11.9428 13.8299 11.924 13.8903 11.9194C13.9506 11.9149 14.0112 11.9247 14.0671 11.9481L18.6595 14.0065C18.737 14.0387 18.802 14.0952 18.8447 14.1674C18.8875 14.2397 18.9058 14.3238 18.8968 14.4073Z" fill="#888888" stroke="#888888" stroke-width="0.355759"/>
</svg>
