<svg width="21" height="16" viewBox="0 0 21 16" fill="none" xmlns="http://www.w3.org/2000/svg">
<path d="M1 3.24219C1 2.71175 1.22242 2.20305 1.61833 1.82797C2.01424 1.4529 2.55121 1.24219 3.11111 1.24219H17.8889C18.4488 1.24219 18.9858 1.4529 19.3817 1.82797C19.7776 2.20305 20 2.71175 20 3.24219M1 3.24219V13.2422C1 13.7726 1.22242 14.2813 1.61833 14.6564C2.01424 15.0315 2.55121 15.2422 3.11111 15.2422H17.8889C18.4488 15.2422 18.9858 15.0315 19.3817 14.6564C19.7776 14.2813 20 13.7726 20 13.2422V3.24219M1 3.24219L10.5 9.24219L20 3.24219" stroke="#888888" stroke-width="1.3341" stroke-linecap="round" stroke-linejoin="round"/>
</svg>
